SplineFontDB: 3.0
FontName: Marianne-RegularItalic
FullName: Marianne Italic
FamilyName: Marianne
Weight: Italic
Copyright: Service d'Information du Gouvernement
UComments: "2021-11-17: Created with FontForge (http://fontforge.org)"
Version: 001.000
ItalicAngle: 0
UnderlinePosition: -100
UnderlineWidth: 50
Ascent: 800
Descent: 200
InvalidEm: 0
LayerCount: 2
Layer: 0 0 "Arri+AOgA-re" 1
Layer: 1 0 "Avant" 0
XUID: [1021 72 -71167352 1445978]
OS2Version: 0
OS2_WeightWidthSlopeOnly: 0
OS2_UseTypoMetrics: 1
CreationTime: 1637172080
ModificationTime: 1637172297
OS2TypoAscent: 0
OS2TypoAOffset: 1
OS2TypoDescent: 0
OS2TypoDOffset: 1
OS2TypoLinegap: 0
OS2WinAscent: 0
OS2WinAOffset: 1
OS2WinDescent: 0
OS2WinDOffset: 1
HheadAscent: 0
HheadAOffset: 1
HheadDescent: 0
HheadDOffset: 1
OS2Vendor: 'PfEd'
MarkAttachClasses: 1
DEI: 91125
Encoding: ISO8859-1
UnicodeInterp: none
NameList: AGL For New Fonts
DisplaySize: -48
AntiAlias: 1
FitToEm: 0
WinInfo: 0 18 14
BeginPrivate: 0
EndPrivate
BeginChars: 256 189

StartChar: exclam
Encoding: 33 33 1
Width: 296
Flags: HW
LayerCount: 2
Fore
SplineSet
107 204 m 1
 179 700 l 1
 276 700 l 1
 172 204 l 1
 107 204 l 1
114 -11 m 128
 96 -11 81 -5 68 8 c 128
 56 20 50 35 50 52 c 128
 50 69 56 84 68 97 c 128
 81 110 96 116 114 116 c 128
 132 116 147 110 160 97 c 128
 172 84 178 69 178 52 c 128
 178 35 172 20 160 8 c 128
 147 -5 132 -11 114 -11 c 128
EndSplineSet
Validated: 1
EndChar

StartChar: quotedbl
Encoding: 34 34 2
Width: 463
Flags: HW
LayerCount: 2
Fore
SplineSet
204 432 m 1
 130 432 l 1
 166 700 l 1
 262 700 l 1
 204 432 l 1
397 432 m 1
 323 432 l 1
 359 700 l 1
 455 700 l 1
 397 432 l 1
EndSplineSet
Validated: 1
EndChar

StartChar: numbersign
Encoding: 35 35 3
Width: 644
Flags: HW
LayerCount: 2
Fore
SplineSet
34 258 m 1
 133 258 l 1
 215 442 l 1
 66 442 l 1
 79 513 l 1
 246 513 l 1
 329 700 l 1
 412 700 l 1
 329 513 l 1
 494 513 l 1
 577 700 l 1
 660 700 l 1
 577 513 l 1
 658 513 l 1
 646 442 l 1
 546 442 l 1
 465 258 l 1
 613 258 l 1
 601 187 l 1
 434 187 l 1
 351 0 l 1
 267 0 l 1
 350 187 l 1
 185 187 l 1
 102 0 l 1
 19 0 l 1
 102 187 l 1
 21 187 l 1
 34 258 l 1
216 258 m 1
 381 258 l 1
 463 442 l 1
 298 442 l 1
 216 258 l 1
EndSplineSet
Validated: 1
EndChar

StartChar: dollar
Encoding: 36 36 4
Width: 600
Flags: HW
LayerCount: 2
Fore
SplineSet
40 117 m 1
 107 167 l 1
 139 120 182 92 235 81 c 1
 278 330 l 1
 234 353 200 377 176 404 c 128
 151 431 139 467 139 513 c 0
 139 564 158 608 196 643 c 128
 234 678 283 697 344 700 c 1
 356 770 l 1
 430 770 l 1
 417 695 l 1
 490 680 543 644 578 587 c 1
 511 538 l 1
 488 582 453 610 404 621 c 1
 363 387 l 1
 394 371 418 357 436 344 c 128
 454 331 471 312 487 286 c 128
 503 261 511 231 511 198 c 0
 511 142 491 96 452 58 c 128
 413 22 360 2 294 0 c 1
 282 -70 l 1
 208 -70 l 1
 221 5 l 1
 140 18 80 55 40 117 c 1
225 520 m 0
 225 485 248 452 295 423 c 1
 330 624 l 1
 297 620 271 608 252 590 c 128
 234 570 225 547 225 520 c 0
425 191 m 0
 425 231 399 266 346 295 c 1
 308 77 l 1
 346 80 375 92 395 112 c 128
 415 133 425 159 425 191 c 0
EndSplineSet
Validated: 1
EndChar

StartChar: percent
Encoding: 37 37 5
Width: 831
Flags: HW
LayerCount: 2
Fore
SplineSet
271 720 m 0
 317 720 354 706 380 678 c 128
 408 651 421 615 421 572 c 0
 421 521 404 478 368 440 c 128
 334 404 290 385 238 385 c 0
 191 385 154 399 128 427 c 128
 100 455 87 491 87 534 c 0
 87 585 104 628 139 665 c 128
 174 702 218 720 271 720 c 0
76 0 m 1
 692 700 l 1
 786 700 l 1
 170 0 l 1
 76 0 l 1
239 445 m 0
 272 445 300 458 322 482 c 128
 343 508 354 537 354 572 c 0
 354 598 346 619 330 636 c 128
 315 653 294 661 268 661 c 0
 235 661 207 648 186 623 c 128
 164 598 153 568 153 533 c 0
 153 508 161 487 176 470 c 128
 192 453 213 445 239 445 c 0
630 314 m 0
 676 314 712 300 740 272 c 128
 766 245 780 209 780 166 c 0
 780 115 762 72 728 34 c 128
 692 -2 649 -21 597 -21 c 0
 550 -21 514 -7 486 21 c 128
 460 49 446 85 446 128 c 0
 446 179 463 222 498 259 c 128
 533 296 577 314 630 314 c 0
598 39 m 0
 631 39 659 52 680 76 c 128
 702 102 713 131 713 166 c 0
 713 192 705 213 690 230 c 128
 674 247 653 255 627 255 c 0
 594 255 566 242 544 217 c 128
 523 192 512 162 512 127 c 0
 512 102 520 81 536 64 c 128
 551 47 572 39 598 39 c 0
EndSplineSet
Validated: 1
EndChar

StartChar: ampersand
Encoding: 38 38 6
Width: 722
Flags: HW
LayerCount: 2
Fore
SplineSet
646 0 m 1
 541 0 l 1
 490 64 l 1
 429 9 357 -19 276 -19 c 0
 207 -19 152 -1 110 35 c 128
 69 71 48 118 48 176 c 0
 48 279 109 351 230 392 c 1
 193 446 174 496 174 541 c 0
 174 591 192 633 228 668 c 128
 263 703 310 720 367 720 c 0
 420 720 462 705 494 676 c 128
 527 646 543 607 543 558 c 0
 543 513 526 474 490 440 c 128
 456 406 411 381 357 365 c 1
 496 189 l 1
 531 239 562 301 589 375 c 1
 680 375 l 1
 639 268 594 185 547 125 c 1
 646 0 l 1
260 538 m 0
 260 505 278 465 315 417 c 1
 361 430 397 448 422 472 c 128
 447 494 460 521 460 552 c 0
 460 578 452 600 436 616 c 128
 419 634 396 642 366 642 c 0
 333 642 308 632 288 612 c 128
 270 593 260 568 260 538 c 0
138 184 m 0
 138 147 151 116 178 92 c 128
 205 69 239 57 281 57 c 0
 339 57 392 80 441 125 c 1
 282 323 l 2
 281 324 280 326 277 329 c 128
 274 332 273 334 272 335 c 0
 183 305 138 255 138 184 c 0
EndSplineSet
EndChar

StartChar: quotesingle
Encoding: 39 39 7
Width: 271
Flags: HW
LayerCount: 2
Fore
SplineSet
204 432 m 1
 130 432 l 1
 166 700 l 1
 262 700 l 1
 204 432 l 1
EndSplineSet
Validated: 1
EndChar

StartChar: parenleft
Encoding: 40 40 8
Width: 315
Flags: HW
LayerCount: 2
Fore
SplineSet
376 694 m 1
 205.333333333 551.333333333 120 383.333333333 120 190 c 0
 120 118.666666667 128.833333333 56.8333333333 146.5 4.5 c 128
 164.166666667 -47.8333333333 192.666666667 -101 232 -155 c 1
 166 -200 l 1
 78 -93.3333333333 34 36.6666666667 34 190 c 0
 34 413.333333333 130.666666667 600 324 750 c 1
 376 694 l 1
EndSplineSet
Validated: 524289
EndChar

StartChar: parenright
Encoding: 41 41 9
Width: 315
Flags: HW
LayerCount: 2
Fore
SplineSet
-55 -144 m 1
 115.666666667 -1.33333333333 201 166.666666667 201 360 c 0
 201 431.333333333 192.166666667 493.166666667 174.5 545.5 c 128
 156.833333333 597.833333333 128.333333333 651 89 705 c 1
 155 750 l 1
 243 643.333333333 287 513.333333333 287 360 c 0
 287 136 190 -50.6666666667 -4 -200 c 1
 -55 -144 l 1
EndSplineSet
Validated: 524289
EndChar

StartChar: asterisk
Encoding: 42 42 10
Width: 420
Flags: HW
LayerCount: 2
Fore
SplineSet
374 367 m 1
 310 328 l 1
 252 457 l 1
 148 328 l 1
 91 374 l 1
 209 496 l 1
 72 535 l 1
 104 601 l 1
 234 546 l 1
 252 700 l 1
 327 700 l 1
 291 545 l 1
 440 601 l 1
 451 531 l 1
 298 491 l 1
 374 367 l 1
EndSplineSet
Validated: 1
EndChar

StartChar: plus
Encoding: 43 43 11
Width: 600
Flags: HW
LayerCount: 2
Fore
SplineSet
538 215 m 1
 331 215 l 1
 293 0 l 1
 219 0 l 1
 257 215 l 1
 49 215 l 1
 63 289 l 1
 270 289 l 1
 308 504 l 1
 382 504 l 1
 344 289 l 1
 551 289 l 1
 538 215 l 1
EndSplineSet
Validated: 1
EndChar

StartChar: comma
Encoding: 44 44 12
Width: 270
Flags: HW
LayerCount: 2
Fore
SplineSet
54 -160 m 1
 -29 -160 l 1
 100 105 l 1
 201 105 l 1
 54 -160 l 1
EndSplineSet
Validated: 1
EndChar

StartChar: hyphen
Encoding: 45 45 13
Width: 301
Flags: HW
LayerCount: 2
Fore
SplineSet
28 297 m 1
 290 297 l 1
 275 215 l 1
 13 215 l 1
 28 297 l 1
EndSplineSet
Validated: 1
EndChar

StartChar: period
Encoding: 46 46 14
Width: 270
Flags: HW
LayerCount: 2
Fore
SplineSet
101 -11 m 128
 83 -11 67.6666666667 -4.83333333333 55 7.5 c 128
 42.3333333333 19.8333333333 36 34.6666666667 36 52 c 128
 36 69.3333333333 42.3333333333 84.3333333333 55 97 c 128
 67.6666666667 109.666666667 83 116 101 116 c 128
 119 116 134.166666667 109.666666667 146.5 97 c 128
 158.833333333 84.3333333333 165 69.3333333333 165 52 c 128
 165 34.6666666667 158.833333333 19.8333333333 146.5 7.5 c 128
 134.166666667 -4.83333333333 119 -11 101 -11 c 128
EndSplineSet
Validated: 524289
EndChar

StartChar: slash
Encoding: 47 47 15
Width: 347
Flags: HW
LayerCount: 2
Fore
SplineSet
-65 -197 m 1
 335 750 l 1
 421 750 l 1
 22 -197 l 1
 -65 -197 l 1
EndSplineSet
Validated: 1
EndChar

StartChar: zero
Encoding: 48 48 16
Width: 600
Flags: HW
LayerCount: 2
Fore
SplineSet
361 720 m 0
 435 720 490 695 528 644 c 128
 564 594 583 525 583 436 c 0
 583 357 571 283 548 214 c 128
 525 146 489 90 442 46 c 128
 394 2 338 -20 274 -20 c 0
 200 -20 144 5 108 56 c 128
 70 106 52 175 52 264 c 0
 52 343 64 417 87 486 c 128
 110 554 146 610 194 654 c 128
 241 698 297 720 361 720 c 0
273 64 m 128
 316 64 355 82 388 118 c 128
 422 153 448 199 464 256 c 128
 482 312 490 372 490 436 c 0
 490 498 479 547 458 582 c 128
 437 618 405 636 362 636 c 0
 319 636 280 618 246 582 c 128
 213 547 187 501 170 444 c 128
 153 388 144 328 144 264 c 0
 144 202 155 153 176 118 c 128
 197 82 230 64 273 64 c 128
EndSplineSet
Validated: 1
EndChar

StartChar: one
Encoding: 49 49 17
Width: 448
Flags: HW
LayerCount: 2
Fore
SplineSet
184 0 m 1
 290 598 l 1
 101 501 l 1
 63 573 l 1
 308 700 l 1
 397 700 l 1
 274 0 l 1
 184 0 l 1
EndSplineSet
Validated: 1
EndChar

StartChar: two
Encoding: 50 50 18
Width: 600
Flags: HW
LayerCount: 2
Fore
SplineSet
30 0 m 1
 45 81 l 1
 332 330 l 2
 386 377.333333333 422.833333333 414.833333333 442.5 442.5 c 128
 462.166666667 470.166666667 472 500 472 532 c 0
 472 563.333333333 461.333333333 589 440 609 c 128
 418.666666667 629 392 639 360 639 c 0
 299.333333333 639 245 603 197 531 c 1
 126 580 l 1
 185.333333333 673.333333333 265.666666667 720 367 720 c 0
 423.666666667 720 470.833333333 703 508.5 669 c 128
 546.166666667 635 565 592 565 540 c 0
 565 493.333333333 551.666666667 451.5 525 414.5 c 128
 498.333333333 377.5 450.666666667 329.333333333 382 270 c 2
 163 81 l 1
 500 81 l 1
 486 0 l 1
 30 0 l 1
EndSplineSet
Validated: 524289
EndChar

StartChar: three
Encoding: 51 51 19
Width: 600
Flags: HW
LayerCount: 2
Fore
SplineSet
557 540 m 0
 557 502 545.166666667 467.5 521.5 436.5 c 128
 497.833333333 405.5 464 382.666666667 420 368 c 1
 457.333333333 352 485.166666667 329 503.5 299 c 128
 521.833333333 269 531 236 531 200 c 0
 531 136 508.333333333 83.3333333333 463 42 c 128
 417.666666667 0.666666666667 357 -20 281 -20 c 0
 161.666666667 -20 77.6666666667 27.3333333333 29 122 c 1
 108 165 l 1
 146.666666667 95.6666666667 204.666666667 61 282 61 c 0
 329.333333333 61 367.166666667 74.1666666667 395.5 100.5 c 128
 423.833333333 126.833333333 438 160.666666667 438 202 c 0
 438 241.333333333 425.333333333 272.666666667 400 296 c 128
 374.666666667 319.333333333 336.666666667 331 286 331 c 2
 199 331 l 1
 213 412 l 1
 309 412 l 2
 359 412 397.166666667 423.333333333 423.5 446 c 128
 449.833333333 468.666666667 463 498 463 534 c 0
 463 564.666666667 452.833333333 589.833333333 432.5 609.5 c 128
 412.166666667 629.166666667 387 639 357 639 c 0
 326.333333333 639 299 631.833333333 275 617.5 c 128
 251 603.166666667 228 579.333333333 206 546 c 1
 135 595 l 1
 191 678.333333333 267.333333333 720 364 720 c 0
 418.666666667 720 464.5 703 501.5 669 c 128
 538.5 635 557 592 557 540 c 0
EndSplineSet
Validated: 524289
EndChar

StartChar: four
Encoding: 52 52 20
Width: 600
Flags: HW
LayerCount: 2
Fore
SplineSet
39 202 m 1
 53 283 l 1
 439 700 l 1
 553 700 l 1
 480 283 l 1
 557 283 l 1
 543 202 l 1
 465 202 l 1
 430 0 l 1
 340 0 l 1
 375 202 l 1
 39 202 l 1
152 283 m 1
 390 283 l 1
 446 601 l 1
 152 283 l 1
EndSplineSet
Validated: 1
EndChar

StartChar: five
Encoding: 53 53 21
Width: 600
Flags: HW
LayerCount: 2
Fore
SplineSet
123 332 m 1
 208 700 l 1
 583 700 l 1
 569 619 l 1
 280 619 l 1
 233 414 l 1
 293 414 l 2
 375 414 435 395 474 358 c 128
 512 320 531 270 531 208 c 0
 531 143 508 88 464 45 c 128
 418 2 358 -20 282 -20 c 0
 163 -20 78 27 29 122 c 1
 108 165 l 1
 147 96 205 61 283 61 c 0
 330 61 368 74 396 100 c 128
 424 127 438 161 438 202 c 0
 438 241 425 273 400 296 c 128
 374 320 335 332 283 332 c 2
 123 332 l 1
EndSplineSet
Validated: 1
EndChar

StartChar: six
Encoding: 54 54 22
Width: 600
Flags: HW
LayerCount: 2
Fore
SplineSet
382 720 m 0
 435 720 481 708 521 683 c 128
 561 658 591 625 610 582 c 1
 531 539 l 1
 517 572 497 596 470 614 c 128
 443 630 413 639 380 639 c 0
 320 639 270 613 232 560 c 128
 192 508 167 440 155 357 c 1
 208 410 269 437 336 437 c 0
 399 437 449 418 487 380 c 128
 525 343 544 292 544 229 c 0
 544 158 520 98 473 51 c 128
 426 4 364 -20 288 -20 c 0
 219 -20 162 4 120 52 c 128
 76 101 55 168 55 253 c 0
 55 336 67 412 90 482 c 128
 113 550 150 608 201 652 c 128
 252 698 312 720 382 720 c 0
148 256 m 2
 148 191 161 143 188 110 c 128
 214 78 248 62 289 62 c 0
 337 62 376 77 406 108 c 128
 435 139 450 178 450 226 c 0
 450 266 438 298 414 321 c 128
 390 344 359 356 320 356 c 0
 251 356 193 325 148 263 c 1
 148 256 l 2
EndSplineSet
Validated: 1
EndChar

StartChar: seven
Encoding: 55 55 23
Width: 600
Flags: HW
LayerCount: 2
Fore
SplineSet
158 0 m 1
 51 0 l 1
 511 619 l 1
 140 619 l 1
 154 700 l 1
 626 700 l 1
 613 619 l 1
 158 0 l 1
EndSplineSet
Validated: 1
EndChar

StartChar: eight
Encoding: 56 56 24
Width: 600
Flags: HW
LayerCount: 2
Fore
SplineSet
129 525 m 0
 129 577 149 622 190 662 c 128
 231 700 286 720 357 720 c 0
 422 720 474 704 513 671 c 128
 552 638 571 596 571 544 c 0
 571 506 559 472 536 440 c 128
 513 410 479 387 434 374 c 1
 507 342 543 286 543 205 c 0
 543 144 520 92 476 47 c 128
 430 2 366 -20 282 -20 c 0
 205 -20 144 -2 102 36 c 128
 58 72 37 121 37 181 c 0
 37 228 52 272 82 310 c 128
 111 350 154 376 211 390 c 1
 156 419 129 464 129 525 c 0
224 522 m 128
 224 489 234 464 255 445 c 128
 276 426 306 417 346 417 c 0
 388 417 420 429 442 453 c 128
 465 477 476 506 476 539 c 0
 476 571 465 596 444 615 c 128
 422 634 392 643 354 643 c 0
 315 643 283 631 260 607 c 128
 236 583 224 555 224 522 c 128
449 210 m 0
 449 250 436 282 410 305 c 128
 383 328 345 340 295 340 c 0
 242 340 201 325 173 296 c 128
 145 267 131 231 131 189 c 0
 131 149 144 117 170 94 c 128
 197 71 235 59 285 59 c 0
 338 59 379 74 407 103 c 128
 435 132 449 168 449 210 c 0
EndSplineSet
Validated: 1
EndChar

StartChar: nine
Encoding: 57 57 25
Width: 600
Flags: HW
LayerCount: 2
Fore
SplineSet
248 -20 m 128
 195.333333333 -20 149 -7.66666666667 109 17 c 128
 69 41.6666666667 39.3333333333 75.3333333333 20 118 c 1
 99 161 l 1
 113 129 133.333333333 104.333333333 160 87 c 128
 186.666666667 69.6666666667 216.333333333 61 249 61 c 0
 309.666666667 61 359.5 87.1666666667 398.5 139.5 c 128
 437.5 191.833333333 463 259.666666667 475 343 c 1
 421.666666667 289.666666667 361.333333333 263 294 263 c 0
 231.333333333 263 181 281.833333333 143 319.5 c 128
 105 357.166666667 86 407.666666667 86 471 c 0
 86 542.333333333 109.666666667 601.666666667 157 649 c 128
 204.333333333 696.333333333 266 720 342 720 c 0
 411.333333333 720 467.5 695.833333333 510.5 647.5 c 128
 553.5 599.166666667 575 532.333333333 575 447 c 0
 575 385 568 326.333333333 554 271 c 128
 540 215.666666667 519.833333333 166.166666667 493.5 122.5 c 128
 467.166666667 78.8333333333 432.833333333 44.1666666667 390.5 18.5 c 128
 348.166666667 -7.16666666667 300.666666667 -20 248 -20 c 128
180 474 m 0
 180 433.333333333 191.833333333 401.5 215.5 378.5 c 128
 239.166666667 355.5 270.666666667 344 310 344 c 0
 381.333333333 344 438.666666667 375.333333333 482 438 c 1
 482 444 l 2
 482 508.666666667 468.833333333 557.166666667 442.5 589.5 c 128
 416.166666667 621.833333333 382.333333333 638 341 638 c 0
 292.333333333 638 253.333333333 622.666666667 224 592 c 128
 194.666666667 561.333333333 180 522 180 474 c 0
EndSplineSet
Validated: 524289
EndChar

StartChar: colon
Encoding: 58 58 26
Width: 270
Flags: HW
LayerCount: 2
Fore
SplineSet
171 388 m 0
 153 388 138 394 125 407 c 128
 112 420 106 435 106 452 c 128
 106 469 112 484 124 496 c 128
 137 509 152 515 171 515 c 0
 188 515 203 509 216 496 c 128
 229 484 235 469 235 452 c 128
 235 435 229 420 216 407 c 128
 203 394 188 388 171 388 c 0
101 -11 m 128
 83 -11 68 -5 56 8 c 128
 43 20 37 35 37 52 c 128
 37 69 43 84 56 97 c 128
 68 110 83 116 101 116 c 128
 119 116 134 110 147 97 c 128
 160 84 166 69 166 52 c 128
 166 35 160 20 147 8 c 128
 134 -5 119 -11 101 -11 c 128
EndSplineSet
Validated: 1
EndChar

StartChar: semicolon
Encoding: 59 59 27
Width: 270
Flags: HW
LayerCount: 2
Fore
SplineSet
170 388 m 0
 151 388 136 394 124 407 c 128
 111 420 105 435 105 452 c 128
 105 469 111 484 124 496 c 128
 136 509 151 515 170 515 c 0
 187 515 202 509 215 496 c 128
 228 484 234 469 234 452 c 128
 234 435 228 420 215 407 c 128
 202 394 187 388 170 388 c 0
34 -160 m 1
 -48 -160 l 1
 81 105 l 1
 182 105 l 1
 34 -160 l 1
EndSplineSet
Validated: 1
EndChar

StartChar: less
Encoding: 60 60 28
Width: 600
Flags: HW
LayerCount: 2
Fore
SplineSet
514 77 m 1
 500 0 l 1
 48 209 l 1
 64 295 l 1
 589 504 l 1
 575 421 l 1
 146 249 l 1
 514 77 l 1
EndSplineSet
Validated: 1
EndChar

StartChar: equal
Encoding: 61 61 29
Width: 600
Flags: HW
LayerCount: 2
Fore
SplineSet
557 323 m 1
 69 323 l 1
 81 397 l 1
 570 397 l 1
 557 323 l 1
519 107 m 1
 31 107 l 1
 43 181 l 1
 532 181 l 1
 519 107 l 1
EndSplineSet
Validated: 1
EndChar

StartChar: greater
Encoding: 62 62 30
Width: 600
Flags: HW
LayerCount: 2
Fore
SplineSet
26 83 m 1
 454 255 l 1
 86 427 l 1
 100 504 l 1
 552 295 l 1
 537 209 l 1
 12 0 l 1
 26 83 l 1
EndSplineSet
Validated: 1
EndChar

StartChar: question
Encoding: 63 63 31
Width: 494
Flags: HW
LayerCount: 2
Fore
SplineSet
166 204 m 1
 177 365 l 1
 258 372 318 389 358 414 c 128
 399 439 419 477 419 527 c 0
 419 558 408 585 387 608 c 128
 366 630 337 641 302 641 c 0
 249 641 203 614 163 561 c 1
 96 608 l 1
 147 683 219 720 310 720 c 0
 369 720 417 703 455 668 c 128
 493 633 512 588 512 531 c 0
 512 468 489 416 442 378 c 128
 396 338 333 314 254 304 c 1
 230 204 l 1
 166 204 l 1
172 -11 m 128
 154 -11 139 -5 126 8 c 128
 114 20 108 35 108 52 c 128
 108 69 114 84 126 97 c 128
 139 110 154 116 172 116 c 128
 190 116 205 110 218 97 c 128
 231 84 237 69 237 52 c 128
 237 35 231 20 218 8 c 128
 205 -5 190 -11 172 -11 c 128
EndSplineSet
EndChar

StartChar: at
Encoding: 64 64 32
Width: 814
Flags: HW
LayerCount: 2
Fore
SplineSet
230 227 m 0
 230 284.333333333 247.166666667 332.333333333 281.5 371 c 128
 315.833333333 409.666666667 359.333333333 429 412 429 c 0
 462.666666667 429 501.666666667 410 529 372 c 1
 537 416 l 1
 607 416 l 1
 565 182 l 2
 562.333333333 166 564.833333333 153.166666667 572.5 143.5 c 128
 580.166666667 133.833333333 592.333333333 129 609 129 c 0
 638.333333333 129 663.333333333 145.5 684 178.5 c 128
 704.666666667 211.5 715 254.666666667 715 308 c 0
 715 381.333333333 688.666666667 442.666666667 636 492 c 128
 583.333333333 541.333333333 517 566 437 566 c 0
 339.666666667 566 260.166666667 532.5 198.5 465.5 c 128
 136.833333333 398.5 106 318.666666667 106 226 c 0
 106 140.666666667 133.666666667 70.8333333333 189 16.5 c 128
 244.333333333 -37.8333333333 311.666666667 -65 391 -65 c 0
 483 -65 562.333333333 -34 629 28 c 1
 664 -18 l 1
 592.666666667 -85.3333333333 501.666666667 -119 391 -119 c 0
 290.333333333 -119 207 -87 141 -23 c 128
 75 41 42 124 42 226 c 0
 42 296.666666667 58.3333333333 361.833333333 91 421.5 c 128
 123.666666667 481.166666667 170.333333333 529.333333333 231 566 c 128
 291.666666667 602.666666667 360.333333333 621 437 621 c 0
 535 621 616.166666667 591.333333333 680.5 532 c 128
 744.833333333 472.666666667 777 398.333333333 777 309 c 0
 777 243.666666667 760.5 187.833333333 727.5 141.5 c 128
 694.5 95.1666666667 655.333333333 72 610 72 c 0
 558 72 524.666666667 92.6666666667 510 134 c 1
 474 92.6666666667 432 72 384 72 c 0
 338.666666667 72 301.666666667 86.6666666667 273 116 c 128
 244.333333333 145.333333333 230 182.333333333 230 227 c 0
303 230 m 0
 303 202 311.166666667 179 327.5 161 c 128
 343.833333333 143 366 134 394 134 c 0
 435.333333333 134 469.666666667 152 497 188 c 1
 517 300 l 1
 495.666666667 344 463 366 419 366 c 0
 385.666666667 366 358 353.333333333 336 328 c 128
 314 302.666666667 303 270 303 230 c 0
EndSplineSet
Validated: 524321
EndChar

StartChar: A
Encoding: 65 65 33
Width: 716
Flags: HW
LayerCount: 2
Fore
SplineSet
-19 0 m 1
 375 700 l 1
 500 700 l 1
 647 0 l 1
 550 0 l 1
 509 206 l 1
 198 206 l 1
 84 0 l 1
 -19 0 l 1
243 287 m 1
 493 287 l 1
 427 617 l 1
 243 287 l 1
EndSplineSet
Validated: 1
EndChar

StartChar: B
Encoding: 66 66 34
Width: 584
Flags: HW
LayerCount: 2
Fore
SplineSet
63 0 m 1
 187 700 l 1
 332 700 l 2
 399.333333333 700 450.5 685.666666667 485.5 657 c 128
 520.5 628.333333333 538 588 538 536 c 0
 538 499.333333333 527.833333333 466.166666667 507.5 436.5 c 128
 487.166666667 406.833333333 459 384.333333333 423 369 c 1
 455.666666667 354.333333333 480.5 333.833333333 497.5 307.5 c 128
 514.5 281.166666667 523 251.666666667 523 219 c 0
 523 153.666666667 498.5 100.833333333 449.5 60.5 c 128
 400.5 20.1666666667 337 0 259 0 c 2
 63 0 l 1
328 620 m 2
 267 620 l 1
 229 409 l 1
 307 409 l 2
 347 409 379 420.166666667 403 442.5 c 128
 427 464.833333333 439 492.666666667 439 526 c 0
 439 556 429.333333333 579.166666667 410 595.5 c 128
 390.666666667 611.833333333 363.333333333 620 328 620 c 2
305 329 m 2
 215 329 l 1
 171 80 l 1
 264 80 l 2
 312 80 350.833333333 92.6666666667 380.5 118 c 128
 410.166666667 143.333333333 425 176.333333333 425 217 c 0
 425 251 414.5 278.166666667 393.5 298.5 c 128
 372.5 318.833333333 343 329 305 329 c 2
EndSplineSet
Validated: 524289
EndChar

StartChar: C
Encoding: 67 67 35
Width: 733
Flags: HW
LayerCount: 2
Fore
SplineSet
457 720 m 0
 519.666666667 720 575.333333333 706 624 678 c 128
 672.666666667 650 710.333333333 613.333333333 737 568 c 1
 656 514 l 1
 637.333333333 548.666666667 609.833333333 576.833333333 573.5 598.5 c 128
 537.166666667 620.166666667 497.333333333 631 454 631 c 0
 368.666666667 631 298 600 242 538 c 128
 186 476 158 400.333333333 158 311 c 0
 158 242.333333333 179 184.666666667 221 138 c 128
 263 91.3333333333 318 68 386 68 c 0
 471.333333333 68 545.333333333 103 608 173 c 1
 675 112 l 1
 602.333333333 24 504.666666667 -20 382 -20 c 0
 286.666666667 -20 209.166666667 10.5 149.5 71.5 c 128
 89.8333333333 132.5 60 210.333333333 60 305 c 0
 60 418.333333333 97.3333333333 515.833333333 172 597.5 c 128
 246.666666667 679.166666667 341.666666667 720 457 720 c 0
EndSplineSet
Validated: 524289
EndChar

StartChar: D
Encoding: 68 68 36
Width: 776
Flags: HW
LayerCount: 2
Fore
SplineSet
63 0 m 1
 187 700 l 1
 397 700 l 2
 503.666666667 700 589 671.666666667 653 615 c 128
 717 558.333333333 749 482 749 386 c 0
 749 335.333333333 739.333333333 286.833333333 720 240.5 c 128
 700.666666667 194.166666667 673.5 153.166666667 638.5 117.5 c 128
 603.5 81.8333333333 559.5 53.3333333333 506.5 32 c 128
 453.5 10.6666666667 395.333333333 0 332 0 c 2
 63 0 l 1
397 614 m 2
 266 614 l 1
 172 86 l 1
 332 86 l 2
 428 86 505.166666667 114.666666667 563.5 172 c 128
 621.833333333 229.333333333 651 299.333333333 651 382 c 0
 651 452 628.166666667 508.166666667 582.5 550.5 c 128
 536.833333333 592.833333333 475 614 397 614 c 2
EndSplineSet
Validated: 524289
EndChar

StartChar: E
Encoding: 69 69 37
Width: 547
Flags: HW
LayerCount: 2
Fore
SplineSet
63 0 m 1
 187 700 l 1
 553 700 l 1
 539 620 l 1
 267 620 l 1
 227 396 l 1
 461 396 l 1
 447 317 l 1
 213 317 l 1
 171 80 l 1
 444 80 l 1
 430 0 l 1
 63 0 l 1
EndSplineSet
Validated: 1
EndChar

StartChar: F
Encoding: 70 70 38
Width: 508
Flags: HW
LayerCount: 2
Fore
SplineSet
63 0 m 1
 187 700 l 1
 553 700 l 1
 539 620 l 1
 267 620 l 1
 227 396 l 1
 461 396 l 1
 447 317 l 1
 213 317 l 1
 157 0 l 1
 63 0 l 1
EndSplineSet
Validated: 1
EndChar

StartChar: G
Encoding: 71 71 39
Width: 784
Flags: HW
LayerCount: 2
Fore
SplineSet
383 -20 m 0
 287.666666667 -20 210.166666667 10.5 150.5 71.5 c 128
 90.8333333333 132.5 61 210.333333333 61 305 c 0
 61 418.333333333 98.8333333333 515.833333333 174.5 597.5 c 128
 250.166666667 679.166666667 346.333333333 720 463 720 c 0
 527.666666667 720 583.833333333 706.166666667 631.5 678.5 c 128
 679.166666667 650.833333333 716.666666667 614.333333333 744 569 c 1
 662 516 l 1
 643.333333333 550.666666667 616.166666667 578.5 580.5 599.5 c 128
 544.833333333 620.5 504 631 458 631 c 0
 372 631 300.666666667 600 244 538 c 128
 187.333333333 476 159 400.333333333 159 311 c 0
 159 242.333333333 179.833333333 184.666666667 221.5 138 c 128
 263.166666667 91.3333333333 318.333333333 68 387 68 c 0
 467 68 537.666666667 94.6666666667 599 148 c 1
 629 316 l 1
 433 316 l 1
 447 397 l 1
 737 397 l 1
 686 108 l 1
 604 22.6666666667 503 -20 383 -20 c 0
EndSplineSet
Validated: 524289
EndChar

StartChar: H
Encoding: 72 72 40
Width: 810
Flags: HW
LayerCount: 2
Fore
SplineSet
63 0 m 1
 187 700 l 1
 281 700 l 1
 228 399 l 1
 636 399 l 1
 689 700 l 1
 783 700 l 1
 659 0 l 1
 565 0 l 1
 621 314 l 1
 213 314 l 1
 157 0 l 1
 63 0 l 1
EndSplineSet
Validated: 1
EndChar

StartChar: I
Encoding: 73 73 41
Width: 308
Flags: HW
LayerCount: 2
Fore
SplineSet
63 0 m 1
 187 700 l 1
 281 700 l 1
 157 0 l 1
 63 0 l 1
EndSplineSet
Validated: 1
EndChar

StartChar: J
Encoding: 74 74 42
Width: 320
Flags: HW
LayerCount: 2
Fore
SplineSet
173 18 m 2
 161.666666667 -46 139.833333333 -92.1666666667 107.5 -120.5 c 128
 75.1666666667 -148.833333333 33 -163 -19 -163 c 0
 -54.3333333333 -163 -81 -159 -99 -151 c 1
 -84 -71 l 1
 -68.6666666667 -77 -50.3333333333 -80 -29 -80 c 0
 2.33333333333 -80 26.6666666667 -72.1666666667 44 -56.5 c 128
 61.3333333333 -40.8333333333 73.6666666667 -10.3333333333 81 35 c 2
 199 700 l 1
 293 700 l 1
 173 18 l 2
EndSplineSet
Validated: 524289
EndChar

StartChar: K
Encoding: 75 75 43
Width: 701
Flags: HW
LayerCount: 2
Fore
SplineSet
63 0 m 1
 187 700 l 1
 281 700 l 1
 219 352 l 1
 623 700 l 1
 747 700 l 1
 408 408 l 1
 631 0 l 1
 521 0 l 1
 337 347 l 1
 197 226 l 1
 157 0 l 1
 63 0 l 1
EndSplineSet
Validated: 1
EndChar

StartChar: L
Encoding: 76 76 44
Width: 508
Flags: HW
LayerCount: 2
Fore
SplineSet
63 0 m 1
 187 700 l 1
 281 700 l 1
 172 86 l 1
 445 86 l 1
 430 0 l 1
 63 0 l 1
EndSplineSet
Validated: 1
EndChar

StartChar: M
Encoding: 77 77 45
Width: 863
Flags: HW
LayerCount: 2
Fore
SplineSet
63 0 m 1
 187 700 l 1
 303 700 l 1
 446 352 l 1
 711 700 l 1
 836 700 l 1
 713 0 l 1
 619 0 l 1
 720 571 l 1
 466 240 l 1
 395 240 l 1
 258 571 l 1
 157 0 l 1
 63 0 l 1
EndSplineSet
Validated: 1
EndChar

StartChar: N
Encoding: 78 78 46
Width: 810
Flags: HW
LayerCount: 2
Fore
SplineSet
63 0 m 1
 187 700 l 1
 307 700 l 1
 585 111 l 1
 689 700 l 1
 783 700 l 1
 659 0 l 1
 538 0 l 1
 261 587 l 1
 157 0 l 1
 63 0 l 1
EndSplineSet
Validated: 1
EndChar

StartChar: O
Encoding: 79 79 47
Width: 811
Flags: HW
LayerCount: 2
Fore
SplineSet
459 720 m 0
 555 720 633.5 689.5 694.5 628.5 c 128
 755.5 567.5 786 489.666666667 786 395 c 0
 786 321 769.5 252.5 736.5 189.5 c 128
 703.5 126.5 656.166666667 75.8333333333 594.5 37.5 c 128
 532.833333333 -0.833333333333 463.666666667 -20 387 -20 c 0
 291 -20 212.666666667 10.5 152 71.5 c 128
 91.3333333333 132.5 61 210.333333333 61 305 c 0
 61 418.333333333 98.5 515.833333333 173.5 597.5 c 128
 248.5 679.166666667 343.666666667 720 459 720 c 0
389 68 m 0
 475 68 546.333333333 99.1666666667 603 161.5 c 128
 659.666666667 223.833333333 688 299.666666667 688 389 c 0
 688 457.666666667 666.833333333 515.333333333 624.5 562 c 128
 582.166666667 608.666666667 526.333333333 632 457 632 c 0
 371 632 299.833333333 600.833333333 243.5 538.5 c 128
 187.166666667 476.166666667 159 400.333333333 159 311 c 0
 159 242.333333333 180 184.666666667 222 138 c 128
 264 91.3333333333 319.666666667 68 389 68 c 0
EndSplineSet
Validated: 524289
EndChar

StartChar: P
Encoding: 80 80 48
Width: 559
Flags: HW
LayerCount: 2
Fore
SplineSet
63 0 m 1
 187 700 l 1
 367 700 l 2
 431.666666667 700 482.833333333 684.333333333 520.5 653 c 128
 558.166666667 621.666666667 577 577.333333333 577 520 c 0
 577 458 554.833333333 407 510.5 367 c 128
 466.166666667 327 406 307 330 307 c 2
 211 307 l 1
 157 0 l 1
 63 0 l 1
362 620 m 2
 267 620 l 1
 226 387 l 1
 328 387 l 2
 374.666666667 387 411.333333333 398.833333333 438 422.5 c 128
 464.666666667 446.166666667 478 477.666666667 478 517 c 0
 478 550.333333333 467.833333333 575.833333333 447.5 593.5 c 128
 427.166666667 611.166666667 398.666666667 620 362 620 c 2
EndSplineSet
Validated: 524289
EndChar

StartChar: Q
Encoding: 81 81 49
Width: 811
Flags: HW
LayerCount: 2
Fore
SplineSet
61 308 m 0
 61 420 98.5 516.666666667 173.5 598 c 128
 248.5 679.333333333 344.666666667 720 462 720 c 0
 559.333333333 720 637.666666667 689 697 627 c 128
 756.333333333 565 786 487 786 393 c 0
 786 317.666666667 768.166666667 247.666666667 732.5 183 c 128
 696.833333333 118.333333333 647.666666667 68 585 32 c 1
 631 -18 l 2
 669.666666667 -58.6666666667 711 -79 755 -79 c 0
 778.333333333 -79 797 -76.6666666667 811 -72 c 1
 797 -153 l 1
 779 -159.666666667 758.666666667 -163 736 -163 c 0
 670.666666667 -163 612.666666667 -137.333333333 562 -86 c 2
 486 -8 l 1
 454 -16 420 -20 384 -20 c 0
 287.333333333 -20 209.333333333 11.1666666667 150 73.5 c 128
 90.6666666667 135.833333333 61 214 61 308 c 0
688 394 m 0
 688 460.666666667 666.833333333 517 624.5 563 c 128
 582.166666667 609 527 632 459 632 c 0
 371.666666667 632 299.833333333 599.666666667 243.5 535 c 128
 187.166666667 470.333333333 159 393.333333333 159 304 c 0
 159 238 180 182.166666667 222 136.5 c 128
 264 90.8333333333 319 68 387 68 c 0
 474.333333333 68 546.333333333 100.166666667 603 164.5 c 128
 659.666666667 228.833333333 688 305.333333333 688 394 c 0
EndSplineSet
Validated: 524289
EndChar

StartChar: R
Encoding: 82 82 50
Width: 623
Flags: HW
LayerCount: 2
Fore
SplineSet
63 0 m 1
 187 700 l 1
 350 700 l 2
 415.333333333 700 466.666666667 684.333333333 504 653 c 128
 541.333333333 621.666666667 560 577.333333333 560 520 c 0
 560 472.666666667 546.333333333 431.166666667 519 395.5 c 128
 491.666666667 359.833333333 454 334.666666667 406 320 c 1
 573 0 l 1
 468 0 l 1
 318 307 l 1
 211 307 l 1
 157 0 l 1
 63 0 l 1
345 620 m 2
 267 620 l 1
 226 387 l 1
 312 387 l 2
 358 387 394.333333333 398.833333333 421 422.5 c 128
 447.666666667 446.166666667 461 477.666666667 461 517 c 0
 461 551 451 576.666666667 431 594 c 128
 411 611.333333333 382.333333333 620 345 620 c 2
EndSplineSet
Validated: 524289
EndChar

StartChar: S
Encoding: 83 83 51
Width: 570
Flags: HW
LayerCount: 2
Fore
SplineSet
236 531 m 0
 236 505 244.833333333 481.5 262.5 460.5 c 128
 280.166666667 439.5 301.5 421 326.5 405 c 128
 351.5 389 376.333333333 372.166666667 401 354.5 c 128
 425.666666667 336.833333333 446.833333333 313.833333333 464.5 285.5 c 128
 482.166666667 257.166666667 491 224.666666667 491 188 c 0
 491 128.666666667 470 79.1666666667 428 39.5 c 128
 386 -0.166666666667 331.333333333 -20 264 -20 c 0
 164 -20 88 20 36 100 c 1
 109 156 l 1
 151.666666667 94.6666666667 204 64 266 64 c 0
 304 64 334.833333333 75.3333333333 358.5 98 c 128
 382.166666667 120.666666667 394 148.333333333 394 181 c 0
 394 207.666666667 385.166666667 231.666666667 367.5 253 c 128
 349.833333333 274.333333333 328.5 293 303.5 309 c 128
 278.5 325 253.5 341.833333333 228.5 359.5 c 128
 203.5 377.166666667 182.166666667 400 164.5 428 c 128
 146.833333333 456 138 488.333333333 138 525 c 0
 138 578.333333333 158.666666667 624.166666667 200 662.5 c 128
 241.333333333 700.833333333 293 720 355 720 c 0
 447.666666667 720 516.666666667 681 562 603 c 1
 488 548 l 1
 456 606.666666667 410.333333333 636 351 636 c 0
 318.333333333 636 291 625.666666667 269 605 c 128
 247 584.333333333 236 559.666666667 236 531 c 0
EndSplineSet
Validated: 524289
EndChar

StartChar: T
Encoding: 84 84 52
Width: 611
Flags: HW
LayerCount: 2
Fore
SplineSet
98 614 m 1
 113 700 l 1
 655 700 l 1
 640 614 l 1
 416 614 l 1
 308 0 l 1
 214 0 l 1
 322 614 l 1
 98 614 l 1
EndSplineSet
Validated: 1
EndChar

StartChar: U
Encoding: 85 85 53
Width: 704
Flags: HW
LayerCount: 2
Fore
SplineSet
523 258 m 2
 601 700 l 1
 695 700 l 1
 617 256 l 2
 584.333333333 72 486.666666667 -20 324 -20 c 0
 240 -20 176 5.66666666667 132 57 c 128
 88 108.333333333 74.3333333333 180.333333333 91 273 c 2
 167 700 l 1
 261 700 l 1
 185 268 l 2
 173.666666667 203.333333333 180.833333333 153.833333333 206.5 119.5 c 128
 232.166666667 85.1666666667 273.333333333 68 330 68 c 0
 436 68 500.333333333 131.333333333 523 258 c 2
EndSplineSet
Validated: 524321
EndChar

StartChar: V
Encoding: 86 86 54
Width: 716
Flags: HW
LayerCount: 2
Fore
SplineSet
105 700 m 1
 201 700 l 1
 328 97 l 1
 667 700 l 1
 770 700 l 1
 376 0 l 1
 252 0 l 1
 105 700 l 1
EndSplineSet
Validated: 1
EndChar

StartChar: W
Encoding: 87 87 55
Width: 1010
Flags: HW
LayerCount: 2
Fore
SplineSet
111 700 m 1
 205 700 l 1
 245 108 l 1
 519 700 l 1
 645 700 l 1
 709 108 l 1
 958 700 l 1
 1058 700 l 1
 761 0 l 1
 632 0 l 1
 565 598 l 1
 288 0 l 1
 162 0 l 1
 111 700 l 1
EndSplineSet
Validated: 1
EndChar

StartChar: X
Encoding: 88 88 56
Width: 696
Flags: HW
LayerCount: 2
Fore
SplineSet
100 0 m 1
 -15 0 l 1
 307 371 l 1
 129 700 l 1
 233 700 l 1
 379 431 l 1
 612 700 l 1
 728 700 l 1
 429 358 l 1
 622 0 l 1
 518 0 l 1
 357 297 l 1
 100 0 l 1
EndSplineSet
Validated: 1
EndChar

StartChar: Y
Encoding: 89 89 57
Width: 658
Flags: HW
LayerCount: 2
Fore
SplineSet
731 700 m 1
 386 313 l 1
 331 0 l 1
 237 0 l 1
 293 318 l 1
 86 700 l 1
 192 700 l 1
 352 404 l 1
 614 700 l 1
 731 700 l 1
EndSplineSet
Validated: 1
EndChar

StartChar: Z
Encoding: 90 90 58
Width: 649
Flags: HW
LayerCount: 2
Fore
SplineSet
9 0 m 1
 24 86 l 1
 529 614 l 1
 127 614 l 1
 142 700 l 1
 665 700 l 1
 650 614 l 1
 146 86 l 1
 567 86 l 1
 552 0 l 1
 9 0 l 1
EndSplineSet
Validated: 1
EndChar

StartChar: bracketleft
Encoding: 91 91 59
Width: 297
Flags: HW
LayerCount: 2
Fore
SplineSet
0 -123 m 1
 154 750 l 1
 371 750 l 1
 358 676 l 1
 222 676 l 1
 81 -123 l 1
 218 -123 l 1
 205 -197 l 1
 -13 -197 l 1
 0 -123 l 1
EndSplineSet
Validated: 1
EndChar

StartChar: backslash
Encoding: 92 92 60
Width: 347
Flags: HW
LayerCount: 2
Fore
SplineSet
255 -197 m 1
 173 -197 l 1
 102 750 l 1
 184 750 l 1
 255 -197 l 1
EndSplineSet
Validated: 1
EndChar

StartChar: bracketright
Encoding: 93 93 61
Width: 297
Flags: HW
LayerCount: 2
Fore
SplineSet
153 -197 m 1
 -64 -197 l 1
 -51 -123 l 1
 85 -123 l 1
 226 676 l 1
 90 676 l 1
 103 750 l 1
 320 750 l 1
 307 676 l 1
 153 -197 l 1
EndSplineSet
Validated: 1
EndChar

StartChar: asciicircum
Encoding: 94 94 62
Width: 600
Flags: HW
LayerCount: 2
Fore
SplineSet
178 154 m 1
 96 154 l 1
 266 380 l 1
 381 380 l 1
 472 154 l 1
 398 154 l 1
 320 334 l 1
 178 154 l 1
EndSplineSet
Validated: 1
EndChar

StartChar: underscore
Encoding: 95 95 63
Width: 524
Flags: HW
LayerCount: 2
Fore
SplineSet
-49 -93 m 1
 452 -93 l 1
 439 -167 l 1
 -63 -167 l 1
 -49 -93 l 1
EndSplineSet
Validated: 1
EndChar

StartChar: grave
Encoding: 96 96 64
Width: 336
Flags: HW
LayerCount: 2
Fore
SplineSet
243 584 m 1
 158 750 l 1
 250 750 l 1
 322 584 l 1
 243 584 l 1
EndSplineSet
Validated: 1
EndChar

StartChar: a
Encoding: 97 97 65
Width: 545
Flags: HW
LayerCount: 2
Fore
SplineSet
187 -14 m 0
 140.333333333 -14 103 -2.66666666667 75 20 c 128
 47 42.6666666667 33 74.3333333333 33 115 c 0
 33 156.333333333 47.8333333333 190.833333333 77.5 218.5 c 128
 107.166666667 246.166666667 151.666666667 265 211 275 c 2
 392 305 l 1
 397 334 l 2
 403 369.333333333 397.166666667 397.166666667 379.5 417.5 c 128
 361.833333333 437.833333333 335 448 299 448 c 0
 245.666666667 448 198 424.333333333 156 377 c 1
 95 428 l 1
 119 456.666666667 149.166666667 479.833333333 185.5 497.5 c 128
 221.833333333 515.166666667 261.333333333 524 304 524 c 0
 370.666666667 524 419.333333333 505.333333333 450 468 c 128
 480.666666667 430.666666667 490.333333333 380.666666667 479 318 c 2
 422 0 l 1
 338 0 l 1
 348 55 l 1
 306 9 252.333333333 -14 187 -14 c 0
121 124 m 0
 121 103.333333333 128.333333333 86.8333333333 143 74.5 c 128
 157.666666667 62.1666666667 178.666666667 56 206 56 c 0
 269.333333333 56 321.333333333 83.3333333333 362 138 c 1
 381 241 l 1
 229 215 l 2
 157 203 121 172.666666667 121 124 c 0
EndSplineSet
Validated: 524321
EndChar

StartChar: b
Encoding: 98 98 66
Width: 641
Flags: HW
LayerCount: 2
Fore
SplineSet
600 288 m 0
 600 202.666666667 573.833333333 130 521.5 70 c 128
 469.166666667 10 401.333333333 -20 318 -20 c 0
 240.666666667 -20 181 7.66666666667 139 63 c 1
 128 0 l 1
 42 0 l 1
 175 750 l 1
 260 750 l 1
 209 462 l 1
 257.666666667 503.333333333 312.333333333 524 373 524 c 0
 443.666666667 524 499.166666667 502.166666667 539.5 458.5 c 128
 579.833333333 414.833333333 600 358 600 288 c 0
353 444 m 0
 285.666666667 444 231.666666667 416 191 360 c 1
 156 162 l 1
 187.333333333 94 239.333333333 60 312 60 c 0
 369.333333333 60 416.666666667 81.3333333333 454 124 c 128
 491.333333333 166.666666667 510 219.666666667 510 283 c 0
 510 330.333333333 495.833333333 369 467.5 399 c 128
 439.166666667 429 401 444 353 444 c 0
EndSplineSet
Validated: 524289
EndChar

StartChar: c
Encoding: 99 99 67
Width: 542
Flags: HW
LayerCount: 2
Fore
SplineSet
339 524 m 0
 385.666666667 524 426.833333333 514.333333333 462.5 495 c 128
 498.166666667 475.666666667 524.666666667 450 542 418 c 1
 470 363 l 1
 442 417 396 444 332 444 c 0
 274 444 225.833333333 421.833333333 187.5 377.5 c 128
 149.166666667 333.166666667 130 280.666666667 130 220 c 0
 130 174 144.166666667 135.833333333 172.5 105.5 c 128
 200.833333333 75.1666666667 238.666666667 60 286 60 c 0
 346 60 395 84 433 132 c 1
 491 74 l 1
 439 11.3333333333 370.333333333 -20 285 -20 c 0
 209.666666667 -20 150 2.83333333333 106 48.5 c 128
 62 94.1666666667 40 151.666666667 40 221 c 0
 40 304.333333333 68.5 375.666666667 125.5 435 c 128
 182.5 494.333333333 253.666666667 524 339 524 c 0
EndSplineSet
Validated: 524289
EndChar

StartChar: d
Encoding: 100 100 68
Width: 639
Flags: HW
LayerCount: 2
Fore
SplineSet
41 216 m 0
 41 300.666666667 67.5 373.166666667 120.5 433.5 c 128
 173.5 493.833333333 241 524 323 524 c 0
 400.333333333 524 460.333333333 496.333333333 503 441 c 1
 557 750 l 1
 642 750 l 1
 510 0 l 1
 425 0 l 1
 434 51 l 1
 383.333333333 3.66666666667 327.333333333 -20 266 -20 c 0
 195.333333333 -20 140.166666667 1.66666666667 100.5 45 c 128
 60.8333333333 88.3333333333 41 145.333333333 41 216 c 0
131 221 m 0
 131 173.666666667 145.166666667 135 173.5 105 c 128
 201.833333333 75 240 60 288 60 c 0
 354.666666667 60 409 88.3333333333 451 145 c 1
 485 341 l 1
 471 373.666666667 450.5 399 423.5 417 c 128
 396.5 435 365 444 329 444 c 0
 271.666666667 444 224.333333333 422.666666667 187 380 c 128
 149.666666667 337.333333333 131 284.333333333 131 221 c 0
EndSplineSet
Validated: 524289
EndChar

StartChar: e
Encoding: 101 101 69
Width: 563
Flags: HW
LayerCount: 2
Fore
SplineSet
280 -20 m 0
 204.666666667 -20 146 2.66666666667 104 48 c 128
 62 93.3333333333 41 151 41 221 c 0
 41 305.666666667 66.1666666667 377.333333333 116.5 436 c 128
 166.833333333 494.666666667 234.666666667 524 320 524 c 0
 380 524 429.666666667 506.166666667 469 470.5 c 128
 508.333333333 434.833333333 528 390 528 336 c 0
 528 306 522.666666667 277.666666667 512 251 c 1
 130 251 l 1
 129.333333333 244.333333333 129 234 129 220 c 0
 129 170 142.666666667 130.333333333 170 101 c 128
 197.333333333 71.6666666667 235.666666667 57 285 57 c 0
 355 57 410 83 450 135 c 1
 507 80 l 1
 452.333333333 13.3333333333 376.666666667 -20 280 -20 c 0
318 453 m 0
 274 453 237.166666667 440.666666667 207.5 416 c 128
 177.833333333 391.333333333 156.333333333 358 143 316 c 1
 442 316 l 1
 447.333333333 352 438.666666667 383.833333333 416 411.5 c 128
 393.333333333 439.166666667 360.666666667 453 318 453 c 0
EndSplineSet
Validated: 524321
EndChar

StartChar: f
Encoding: 102 102 70
Width: 376
Flags: HW
LayerCount: 2
Fore
SplineSet
68 504 m 1
 160 504 l 1
 172 572 l 2
 182 630.666666667 203.333333333 675 236 705 c 128
 268.666666667 735 309.666666667 750 359 750 c 0
 404.333333333 750 443.333333333 738.666666667 476 716 c 1
 430 649 l 1
 409.333333333 665 386 673 360 673 c 128
 334 673 311.833333333 664.5 293.5 647.5 c 128
 275.166666667 630.5 263 605.333333333 257 572 c 2
 245 504 l 1
 414 504 l 1
 401 427 l 1
 232 427 l 1
 114 -246 l 1
 28 -246 l 1
 146 427 l 1
 53 427 l 1
 68 504 l 1
EndSplineSet
Validated: 524289
EndChar

StartChar: g
Encoding: 103 103 71
Width: 540
Flags: HW
LayerCount: 2
Fore
SplineSet
-31 -103 m 0
 -31 -44.3333333333 2.66666666667 3.33333333333 70 40 c 1
 52.6666666667 57.3333333333 44 77.6666666667 44 101 c 0
 44 143.666666667 71.3333333333 180 126 210 c 1
 91.3333333333 240.666666667 74 280.666666667 74 330 c 0
 74 382.666666667 93 428.333333333 131 467 c 128
 169 505.666666667 220 525 284 525 c 0
 319.333333333 525 351 518 379 504 c 1
 571 504 l 1
 557 430 l 1
 449 430 l 1
 457.666666667 410.666666667 462 388.666666667 462 364 c 0
 462 310.666666667 443.166666667 264.666666667 405.5 226 c 128
 367.833333333 187.333333333 317.333333333 168 254 168 c 0
 224 168 198.333333333 172.333333333 177 181 c 1
 143 161.666666667 126 141.333333333 126 120 c 0
 126 100 138 90 162 90 c 2
 286 90 l 2
 346.666666667 90 392 76.8333333333 422 50.5 c 128
 452 24.1666666667 467 -11.3333333333 467 -56 c 0
 467 -112 443 -158.333333333 395 -195 c 128
 347 -231.666666667 280.333333333 -250 195 -250 c 0
 120.333333333 -250 64 -237 26 -211 c 128
 -12 -185 -31 -149 -31 -103 c 0
382 362 m 0
 382 388.666666667 373 411.333333333 355 430 c 128
 337 448.666666667 313.333333333 458 284 458 c 0
 244 458 212.5 445.666666667 189.5 421 c 128
 166.5 396.333333333 155 366.333333333 155 331 c 0
 155 303.666666667 163.833333333 280.833333333 181.5 262.5 c 128
 199.166666667 244.166666667 223.333333333 235 254 235 c 0
 292.666666667 235 323.666666667 247.5 347 272.5 c 128
 370.333333333 297.5 382 327.333333333 382 362 c 0
54 -92 m 0
 54 -150 102 -179 198 -179 c 0
 258 -179 303.333333333 -168.333333333 334 -147 c 128
 364.666666667 -125.666666667 380 -97.6666666667 380 -63 c 0
 380 -11 346.666666667 15 280 15 c 2
 135 15 l 1
 109 2.33333333333 89 -13.8333333333 75 -33.5 c 128
 61 -53.1666666667 54 -72.6666666667 54 -92 c 0
EndSplineSet
Validated: 524289
EndChar

StartChar: h
Encoding: 104 104 72
Width: 602
Flags: HW
LayerCount: 2
Fore
SplineSet
42 0 m 1
 174 750 l 1
 259 750 l 1
 206 451 l 1
 256.666666667 499.666666667 312 524 372 524 c 128
 432 524 477 504.833333333 507 466.5 c 128
 537 428.166666667 546 374.333333333 534 305 c 2
 480 0 l 1
 395 0 l 1
 448 302 l 2
 456 346.666666667 450.833333333 381.5 432.5 406.5 c 128
 414.166666667 431.5 385.666666667 444 347 444 c 0
 283.666666667 444 231 412.333333333 189 349 c 1
 189 350 l 1
 127 0 l 1
 42 0 l 1
EndSplineSet
Validated: 524321
EndChar

StartChar: i
Encoding: 105 105 73
Width: 258
Flags: HW
LayerCount: 2
Fore
SplineSet
207 635 m 128
 190.333333333 635 176.166666667 640.833333333 164.5 652.5 c 128
 152.833333333 664.166666667 147 678.333333333 147 695 c 0
 147 711 152.833333333 724.833333333 164.5 736.5 c 128
 176.166666667 748.166666667 190.333333333 754 207 754 c 128
 223.666666667 754 237.666666667 748.166666667 249 736.5 c 128
 260.333333333 724.833333333 266 711 266 695 c 0
 266 678.333333333 260.333333333 664.166666667 249 652.5 c 128
 237.666666667 640.833333333 223.666666667 635 207 635 c 128
43 0 m 1
 131 504 l 1
 216 504 l 1
 127 0 l 1
 43 0 l 1
EndSplineSet
Validated: 524289
EndChar

StartChar: j
Encoding: 106 106 74
Width: 258
Flags: HW
LayerCount: 2
Fore
SplineSet
207 635 m 0
 190.333333333 635 176.166666667 640.833333333 164.5 652.5 c 128
 152.833333333 664.166666667 147 678.333333333 147 695 c 0
 147 711 152.833333333 724.833333333 164.5 736.5 c 128
 176.166666667 748.166666667 190.333333333 754 207 754 c 0
 223 754 236.833333333 748.166666667 248.5 736.5 c 128
 260.166666667 724.833333333 266 711 266 695 c 0
 266 678.333333333 260.166666667 664.166666667 248.5 652.5 c 128
 236.833333333 640.833333333 223 635 207 635 c 0
114 -73 m 2
 102.666666667 -138.333333333 81.6666666667 -184.166666667 51 -210.5 c 128
 20.3333333333 -236.833333333 -20.3333333333 -250 -71 -250 c 0
 -111 -250 -143.333333333 -243.333333333 -168 -230 c 1
 -155 -155 l 1
 -131 -166.333333333 -107 -172 -83 -172 c 0
 -51 -172 -25.8333333333 -165 -7.5 -151 c 128
 10.8333333333 -137 23.3333333333 -109.666666667 30 -69 c 2
 131 504 l 1
 216 504 l 1
 114 -73 l 2
EndSplineSet
Validated: 524289
EndChar

StartChar: k
Encoding: 107 107 75
Width: 530
Flags: HW
LayerCount: 2
Fore
SplineSet
44 0 m 1
 175 750 l 1
 261 750 l 1
 177 270 l 1
 440 504 l 1
 553 504 l 1
 313 292 l 1
 469 0 l 1
 373 0 l 1
 249 235 l 1
 156 153 l 1
 129 0 l 1
 44 0 l 1
EndSplineSet
Validated: 1
EndChar

StartChar: l
Encoding: 108 108 76
Width: 258
Flags: HW
LayerCount: 2
Fore
SplineSet
43 0 m 1
 175 750 l 1
 260 750 l 1
 127 0 l 1
 43 0 l 1
EndSplineSet
Validated: 1
EndChar

StartChar: m
Encoding: 109 109 77
Width: 915
Flags: HW
LayerCount: 2
Fore
SplineSet
43 0 m 1
 131 504 l 1
 216 504 l 1
 207 452 l 1
 253.666666667 500 305.333333333 524 362 524 c 0
 438 524 487.333333333 492 510 428 c 1
 565.333333333 492 627 524 695 524 c 0
 751 524 793.5 505.166666667 822.5 467.5 c 128
 851.5 429.833333333 860 377.333333333 848 310 c 2
 794 0 l 1
 708 0 l 1
 762 307 l 2
 770 351 765.5 384.833333333 748.5 408.5 c 128
 731.5 432.166666667 705.333333333 444 670 444 c 0
 615.333333333 444 565 411.333333333 519 346 c 1
 519 338 517.666666667 326 515 310 c 2
 460 0 l 1
 375 0 l 1
 429 307 l 2
 437 351 432.5 384.833333333 415.5 408.5 c 128
 398.5 432.166666667 372.333333333 444 337 444 c 0
 281 444 231.666666667 412.333333333 189 349 c 1
 127 0 l 1
 43 0 l 1
EndSplineSet
Validated: 524321
EndChar

StartChar: n
Encoding: 110 110 78
Width: 602
Flags: HW
LayerCount: 2
Fore
SplineSet
42 0 m 1
 131 504 l 1
 216 504 l 1
 207 451 l 1
 255.666666667 499.666666667 310.666666667 524 372 524 c 0
 432 524 477 504.833333333 507 466.5 c 128
 537 428.166666667 546 374.333333333 534 305 c 2
 480 0 l 1
 395 0 l 1
 449 302 l 2
 457 346.666666667 451.666666667 381.5 433 406.5 c 128
 414.333333333 431.5 385.666666667 444 347 444 c 0
 283.666666667 444 231 412.333333333 189 349 c 1
 127 0 l 1
 42 0 l 1
EndSplineSet
Validated: 524321
EndChar

StartChar: o
Encoding: 111 111 79
Width: 619
Flags: HW
LayerCount: 2
Fore
SplineSet
339 524 m 0
 413 524 471.666666667 501.166666667 515 455.5 c 128
 558.333333333 409.833333333 580 352.333333333 580 283 c 0
 580 201 552.166666667 130 496.5 70 c 128
 440.833333333 10 369.666666667 -20 283 -20 c 0
 208.333333333 -20 149.166666667 2.83333333333 105.5 48.5 c 128
 61.8333333333 94.1666666667 40 151.666666667 40 221 c 0
 40 303 68 374 124 434 c 128
 180 494 251.666666667 524 339 524 c 0
284 60 m 0
 344 60 393.333333333 82.1666666667 432 126.5 c 128
 470.666666667 170.833333333 490 223.333333333 490 284 c 0
 490 330 475.833333333 368.166666667 447.5 398.5 c 128
 419.166666667 428.833333333 382 444 336 444 c 0
 276 444 226.666666667 421.833333333 188 377.5 c 128
 149.333333333 333.166666667 130 280.666666667 130 220 c 0
 130 174 144.166666667 135.833333333 172.5 105.5 c 128
 200.833333333 75.1666666667 238 60 284 60 c 0
EndSplineSet
Validated: 524289
EndChar

StartChar: p
Encoding: 112 112 80
Width: 640
Flags: HW
LayerCount: 2
Fore
SplineSet
-1 -246 m 1
 131 504 l 1
 216 504 l 1
 207 454 l 1
 257 500.666666667 313 524 375 524 c 0
 445.666666667 524 500.833333333 502.333333333 540.5 459 c 128
 580.166666667 415.666666667 600 358.666666667 600 288 c 0
 600 203.333333333 573.5 130.833333333 520.5 70.5 c 128
 467.5 10.1666666667 400 -20 318 -20 c 0
 240.666666667 -20 180.666666667 7.66666666667 138 63 c 1
 84 -246 l 1
 -1 -246 l 1
352 444 m 0
 286 444 232 415.666666667 190 359 c 1
 156 163 l 1
 170 130.333333333 190.5 105 217.5 87 c 128
 244.5 69 276 60 312 60 c 0
 369.333333333 60 416.666666667 81.3333333333 454 124 c 128
 491.333333333 166.666666667 510 219.666666667 510 283 c 0
 510 330.333333333 495.833333333 369 467.5 399 c 128
 439.166666667 429 400.666666667 444 352 444 c 0
EndSplineSet
Validated: 524289
EndChar

StartChar: q
Encoding: 113 113 81
Width: 640
Flags: HW
LayerCount: 2
Fore
SplineSet
41 216 m 0
 41 300.666666667 67.5 373.166666667 120.5 433.5 c 128
 173.5 493.833333333 241 524 323 524 c 0
 400.333333333 524 460.333333333 496 503 440 c 1
 514 504 l 1
 598 504 l 1
 466 -246 l 1
 382 -246 l 1
 433 43 l 1
 385 1 330 -20 268 -20 c 0
 196.666666667 -20 141 1.83333333333 101 45.5 c 128
 61 89.1666666667 41 146 41 216 c 0
131 221 m 0
 131 173.666666667 145.166666667 135 173.5 105 c 128
 201.833333333 75 240 60 288 60 c 0
 355.333333333 60 409.666666667 88.6666666667 451 146 c 1
 485 341 l 1
 471 373.666666667 450.5 399 423.5 417 c 128
 396.5 435 365 444 329 444 c 0
 271.666666667 444 224.333333333 422.666666667 187 380 c 128
 149.666666667 337.333333333 131 284.333333333 131 221 c 0
EndSplineSet
Validated: 524289
EndChar

StartChar: r
Encoding: 114 114 82
Width: 386
Flags: HW
LayerCount: 2
Fore
SplineSet
42 0 m 1
 131 504 l 1
 216 504 l 1
 204 437 l 1
 248.666666667 488.333333333 299 514 355 514 c 0
 373 514 388.333333333 512 401 508 c 1
 386 425 l 1
 367.333333333 429 352.333333333 431 341 431 c 0
 286.333333333 431 235 400 187 338 c 1
 127 0 l 1
 42 0 l 1
EndSplineSet
Validated: 524289
EndChar

StartChar: s
Encoding: 115 115 83
Width: 428
Flags: HW
LayerCount: 2
Fore
SplineSet
165 378 m 0
 165 359.333333333 171.833333333 343 185.5 329 c 128
 199.166666667 315 215.666666667 302.833333333 235 292.5 c 128
 254.333333333 282.166666667 273.833333333 271 293.5 259 c 128
 313.166666667 247 329.833333333 230.833333333 343.5 210.5 c 128
 357.166666667 190.166666667 364 166 364 138 c 0
 364 95.3333333333 348 58.3333333333 316 27 c 128
 284 -4.33333333333 241.666666667 -20 189 -20 c 0
 107.666666667 -20 46.6666666667 12.6666666667 6 78 c 1
 70 126 l 1
 101.333333333 76 142.333333333 51 193 51 c 0
 219 51 240.166666667 58.8333333333 256.5 74.5 c 128
 272.833333333 90.1666666667 281 110 281 134 c 0
 281 152.666666667 274.166666667 168.833333333 260.5 182.5 c 128
 246.833333333 196.166666667 230.333333333 208.166666667 211 218.5 c 128
 191.666666667 228.833333333 172.166666667 240 152.5 252 c 128
 132.833333333 264 116.166666667 280.333333333 102.5 301 c 128
 88.8333333333 321.666666667 82 346 82 374 c 0
 82 415.333333333 98.1666666667 450.666666667 130.5 480 c 128
 162.833333333 509.333333333 204 524 254 524 c 0
 290.666666667 524 323.166666667 515.5 351.5 498.5 c 128
 379.833333333 481.5 401.333333333 459.333333333 416 432 c 1
 351 386 l 1
 329 430.666666667 296 453 252 453 c 0
 227.333333333 453 206.666666667 445.5 190 430.5 c 128
 173.333333333 415.5 165 398 165 378 c 0
EndSplineSet
Validated: 524289
EndChar

StartChar: t
Encoding: 116 116 84
Width: 408
Flags: HW
LayerCount: 2
Fore
SplineSet
102 182 m 2
 146 427 l 1
 54 427 l 1
 68 504 l 1
 160 504 l 1
 182 630 l 1
 268 630 l 1
 246 504 l 1
 414 504 l 1
 401 427 l 1
 232 427 l 1
 187 176 l 2
 179.666666667 135.333333333 183 107.166666667 197 91.5 c 128
 211 75.8333333333 234 68 266 68 c 0
 292 68 316.666666667 72.3333333333 340 81 c 1
 327 5 l 1
 300.333333333 -5 273 -10 245 -10 c 0
 127 -10 79.3333333333 54 102 182 c 2
EndSplineSet
Validated: 524321
EndChar

StartChar: u
Encoding: 117 117 85
Width: 586
Flags: HW
LayerCount: 2
Fore
SplineSet
419 216 m 2
 470 504 l 1
 556 504 l 1
 504 215 l 2
 476.666666667 58.3333333333 397 -20 265 -20 c 0
 193.666666667 -20 140.166666667 1.5 104.5 44.5 c 128
 68.8333333333 87.5 57.6666666667 147.333333333 71 224 c 2
 121 504 l 1
 206 504 l 1
 155 216 l 2
 146.333333333 166.666666667 152.333333333 128.333333333 173 101 c 128
 193.666666667 73.6666666667 226.333333333 60 271 60 c 0
 351 60 400.333333333 112 419 216 c 2
EndSplineSet
Validated: 524321
EndChar

StartChar: v
Encoding: 118 118 86
Width: 518
Flags: HW
LayerCount: 2
Fore
SplineSet
58 504 m 1
 147 504 l 1
 229 92 l 1
 455 504 l 1
 550 504 l 1
 271 0 l 1
 159 0 l 1
 58 504 l 1
EndSplineSet
Validated: 1
EndChar

StartChar: w
Encoding: 119 119 87
Width: 780
Flags: HW
LayerCount: 2
Fore
SplineSet
78 504 m 1
 160 504 l 1
 187 86 l 1
 373 504 l 1
 489 504 l 1
 528 88 l 1
 703 504 l 1
 791 504 l 1
 580 0 l 1
 460 0 l 1
 420 428 l 1
 229 0 l 1
 112 0 l 1
 78 504 l 1
EndSplineSet
Validated: 1
EndChar

StartChar: x
Encoding: 120 120 88
Width: 516
Flags: HW
LayerCount: 2
Fore
SplineSet
78 0 m 1
 -22 0 l 1
 207 266 l 1
 80 504 l 1
 172 504 l 1
 269 319 l 1
 426 504 l 1
 526 504 l 1
 313 256 l 1
 450 0 l 1
 358 0 l 1
 251 203 l 1
 78 0 l 1
EndSplineSet
Validated: 1
EndChar

StartChar: y
Encoding: 121 121 89
Width: 533
Flags: HW
LayerCount: 2
Fore
SplineSet
198 -122 m 2
 172 -167.333333333 144.833333333 -200 116.5 -220 c 128
 88.1666666667 -240 55 -250 17 -250 c 0
 -22.3333333333 -250 -52.6666666667 -243.333333333 -74 -230 c 1
 -61 -155 l 1
 -40.3333333333 -166.333333333 -17.3333333333 -172 8 -172 c 0
 53.3333333333 -172 92 -145 124 -91 c 2
 178 1 l 1
 58 504 l 1
 148 504 l 1
 239 107 l 1
 470 504 l 1
 564 504 l 1
 198 -122 l 2
EndSplineSet
Validated: 524289
EndChar

StartChar: z
Encoding: 122 122 90
Width: 491
Flags: HW
LayerCount: 2
Fore
SplineSet
4 0 m 1
 18 77 l 1
 363 427 l 1
 86 427 l 1
 100 504 l 1
 482 504 l 1
 469 427 l 1
 123 77 l 1
 414 77 l 1
 400 0 l 1
 4 0 l 1
EndSplineSet
Validated: 1
EndChar

StartChar: braceleft
Encoding: 123 123 91
Width: 297
Flags: HW
LayerCount: 2
Fore
SplineSet
190 190 m 0
 190 161.333333333 182 131.166666667 166 99.5 c 128
 150 67.8333333333 134 37.6666666667 118 9 c 128
 102 -19.6666666667 94 -45 94 -67 c 0
 94 -104.333333333 119.333333333 -123 170 -123 c 2
 218 -123 l 1
 205 -197 l 1
 161 -197 l 2
 113.666666667 -197 77 -186 51 -164 c 128
 25 -142 12 -111.666666667 12 -73 c 0
 12 -45 20.1666666667 -15.5 36.5 15.5 c 128
 52.8333333333 46.5 69.1666666667 76.8333333333 85.5 106.5 c 128
 101.833333333 136.166666667 110 163.333333333 110 188 c 0
 110 222.666666667 94.6666666667 240 64 240 c 2
 8 240 l 1
 21 314 l 1
 79 314 l 2
 101 314 117.833333333 322.333333333 129.5 339 c 128
 141.166666667 355.666666667 147 377.666666667 147 405 c 0
 147 425.666666667 143.333333333 456.5 136 497.5 c 128
 128.666666667 538.5 125 571 125 595 c 0
 125 641.666666667 140.166666667 679.166666667 170.5 707.5 c 128
 200.833333333 735.833333333 243.333333333 750 298 750 c 2
 372 750 l 1
 358 676 l 1
 299 676 l 2
 237 676 206 646 206 586 c 0
 206 566 209.666666667 537.333333333 217 500 c 128
 224.333333333 462.666666667 228 432.666666667 228 410 c 0
 228 381.333333333 221.333333333 354 208 328 c 128
 194.666666667 302 175.333333333 283 150 271 c 1
 176.666666667 251.666666667 190 224.666666667 190 190 c 0
EndSplineSet
Validated: 524289
EndChar

StartChar: bar
Encoding: 124 124 92
Width: 347
Flags: HW
LayerCount: 2
Fore
SplineSet
54 -197 m 1
 221 750 l 1
 302 750 l 1
 135 -197 l 1
 54 -197 l 1
EndSplineSet
Validated: 1
EndChar

StartChar: braceright
Encoding: 125 125 93
Width: 297
Flags: HW
LayerCount: 2
Fore
SplineSet
118 363 m 0
 118 391.666666667 126 421.833333333 142 453.5 c 128
 158 485.166666667 174 515.333333333 190 544 c 128
 206 572.666666667 214 598 214 620 c 0
 214 657.333333333 188.666666667 676 138 676 c 2
 90 676 l 1
 103 750 l 1
 147 750 l 2
 193.666666667 750 230.166666667 739 256.5 717 c 128
 282.833333333 695 296 664.666666667 296 626 c 0
 296 592 279.666666667 547.166666667 247 491.5 c 128
 214.333333333 435.833333333 198 393.333333333 198 364 c 0
 198 330.666666667 213 314 243 314 c 2
 300 314 l 1
 286 239 l 1
 228 239 l 2
 206 239 189.166666667 230.666666667 177.5 214 c 128
 165.833333333 197.333333333 160 175.333333333 160 148 c 0
 160 127.333333333 163.833333333 96.5 171.5 55.5 c 128
 179.166666667 14.5 183 -18 183 -42 c 0
 183 -88.6666666667 167.666666667 -126.166666667 137 -154.5 c 128
 106.333333333 -182.833333333 63.6666666667 -197 9 -197 c 2
 -64 -197 l 1
 -51 -123 l 1
 8 -123 l 2
 70 -123 101 -93 101 -33 c 0
 101 -12.3333333333 97.5 16.6666666667 90.5 54 c 128
 83.5 91.3333333333 80 121 80 143 c 0
 80 171.666666667 86.5 199 99.5 225 c 128
 112.5 251 131.666666667 270 157 282 c 1
 131 301.333333333 118 328.333333333 118 363 c 0
EndSplineSet
Validated: 524289
EndChar

StartChar: asciitilde
Encoding: 126 126 94
Width: 600
Flags: HW
LayerCount: 2
Fore
SplineSet
84 162 m 1
 101 257 l 2
 115 337.666666667 152 378 212 378 c 0
 235.333333333 378 255.333333333 372.5 272 361.5 c 128
 288.666666667 350.5 301.333333333 337.333333333 310 322 c 128
 318.666666667 306.666666667 326.5 291.333333333 333.5 276 c 128
 340.5 260.666666667 348.666666667 247.5 358 236.5 c 128
 367.333333333 225.5 378 220 390 220 c 0
 417.333333333 220 434.666666667 241 442 283 c 2
 458 372 l 1
 522 372 l 1
 505 277 l 2
 491 196.333333333 454 156 394 156 c 0
 370.666666667 156 350.666666667 161.5 334 172.5 c 128
 317.333333333 183.5 304.666666667 196.666666667 296 212 c 128
 287.333333333 227.333333333 279.333333333 242.666666667 272 258 c 128
 264.666666667 273.333333333 256.5 286.5 247.5 297.5 c 128
 238.5 308.5 227.666666667 314 215 314 c 0
 187.666666667 314 170.333333333 293 163 251 c 2
 148 162 l 1
 84 162 l 1
EndSplineSet
Validated: 524289
EndChar

StartChar: exclamdown
Encoding: 161 161 96
Width: 296
Flags: HW
LayerCount: 2
Fore
SplineSet
185 524 m 128
 203 524 218.166666667 517.833333333 230.5 505.5 c 128
 242.833333333 493.166666667 249 478 249 460 c 0
 249 442.666666667 242.833333333 427.833333333 230.5 415.5 c 128
 218.166666667 403.166666667 203 397 185 397 c 128
 167 397 151.833333333 403.166666667 139.5 415.5 c 128
 127.166666667 427.833333333 121 442.666666667 121 460 c 0
 121 478 127.166666667 493.166666667 139.5 505.5 c 128
 151.833333333 517.833333333 167 524 185 524 c 128
191 309 m 1
 120 -187 l 1
 23 -187 l 1
 127 309 l 1
 191 309 l 1
EndSplineSet
Validated: 524289
EndChar

StartChar: cent
Encoding: 162 162 97
Width: 600
Flags: HW
LayerCount: 2
Fore
SplineSet
366 700 m 1
 439 700 l 1
 425 620 l 1
 499 608 551.666666667 574 583 518 c 1
 511 464 l 1
 491 505.333333333 457.666666667 530.333333333 411 539 c 1
 344 161 l 1
 396.666666667 165.666666667 440 190 474 234 c 1
 531 173 l 1
 479 110.333333333 412 79 330 79 c 1
 316 0 l 1
 242 0 l 1
 257 87 l 1
 201.666666667 99.6666666667 158.5 127.166666667 127.5 169.5 c 128
 96.5 211.833333333 81 262 81 320 c 0
 81 398.666666667 106.5 467 157.5 525 c 128
 208.5 583 273.333333333 615.333333333 352 622 c 1
 366 700 l 1
171 320 m 0
 171 284 180 252.5 198 225.5 c 128
 216 198.5 240.666666667 179.666666667 272 169 c 1
 338 540 l 1
 288.666666667 530.666666667 248.5 505 217.5 463 c 128
 186.5 421 171 373.333333333 171 320 c 0
EndSplineSet
Validated: 524289
EndChar

StartChar: sterling
Encoding: 163 163 98
Width: 600
Flags: HW
LayerCount: 2
Fore
SplineSet
33 0 m 1
 48 81 l 1
 119 134 l 2
 165.666666667 170 197 197.5 213 216.5 c 128
 229 235.5 237 257.666666667 237 283 c 0
 237 291.666666667 236 300.333333333 234 309 c 1
 88 309 l 1
 101 382 l 1
 208 382 l 2
 207.333333333 383.333333333 204.833333333 388.666666667 200.5 398 c 128
 196.166666667 407.333333333 193.5 413.166666667 192.5 415.5 c 128
 191.5 417.833333333 189.333333333 423.166666667 186 431.5 c 128
 182.666666667 439.833333333 180.333333333 445.833333333 179 449.5 c 128
 177.666666667 453.166666667 175.833333333 458.666666667 173.5 466 c 128
 171.166666667 473.333333333 169.5 479.5 168.5 484.5 c 128
 167.5 489.5 166.666666667 495.333333333 166 502 c 128
 165.333333333 508.666666667 165 515 165 521 c 0
 165 579.666666667 184.666666667 627.5 224 664.5 c 128
 263.333333333 701.5 313.333333333 720 374 720 c 0
 464 720 529.666666667 682.333333333 571 607 c 1
 499 561 l 1
 469.666666667 612.333333333 429.666666667 638 379 638 c 0
 339.666666667 638 309 626.833333333 287 604.5 c 128
 265 582.166666667 254 552 254 514 c 0
 254 502.666666667 255.666666667 490.666666667 259 478 c 128
 262.333333333 465.333333333 265.333333333 455.5 268 448.5 c 128
 270.666666667 441.5 275.666666667 429.666666667 283 413 c 128
 290.333333333 396.333333333 295 386 297 382 c 1
 507 382 l 1
 494 309 l 1
 320 309 l 1
 321.333333333 298.333333333 322 290 322 284 c 0
 322 250.666666667 311.833333333 220.166666667 291.5 192.5 c 128
 271.166666667 164.833333333 237 133 189 97 c 2
 167 81 l 1
 503 81 l 1
 488 0 l 1
 33 0 l 1
EndSplineSet
Validated: 524289
EndChar

StartChar: currency
Encoding: 164 164 99
Width: 600
Flags: HW
LayerCount: 2
Fore
SplineSet
449 0 m 1
 367 105 l 1
 341.666666667 92.3333333333 314.333333333 86 285 86 c 0
 249.666666667 86 219.666666667 94.3333333333 195 111 c 1
 69 0 l 1
 20 52 l 1
 148 166 l 1
 138.666666667 186.666666667 134 209.333333333 134 234 c 0
 134 278 147.666666667 317.333333333 175 352 c 1
 93 458 l 1
 153 504 l 1
 233 400 l 1
 257.666666667 413.333333333 285 420 315 420 c 0
 349.666666667 420 380 411.333333333 406 394 c 1
 531 504 l 1
 580 452 l 1
 452 339 l 1
 461.333333333 318.333333333 466 296 466 272 c 0
 466 228 452.333333333 188.666666667 425 154 c 1
 509 46 l 1
 449 0 l 1
287 146 m 0
 319 146 345.5 158.333333333 366.5 183 c 128
 387.5 207.666666667 398 237 398 271 c 0
 398 296.333333333 390.166666667 317.5 374.5 334.5 c 128
 358.833333333 351.5 338 360 312 360 c 0
 280 360 253.5 347.666666667 232.5 323 c 128
 211.5 298.333333333 201 269 201 235 c 0
 201 209.666666667 208.833333333 188.5 224.5 171.5 c 128
 240.166666667 154.5 261 146 287 146 c 0
EndSplineSet
Validated: 524289
EndChar

StartChar: yen
Encoding: 165 165 100
Width: 600
Flags: HW
LayerCount: 2
Fore
SplineSet
65 232 m 1
 78 306 l 1
 265 306 l 1
 280 389 l 1
 93 389 l 1
 106 463 l 1
 240 463 l 1
 122 701 l 1
 224 701 l 1
 334 465 l 1
 528 700 l 1
 636 700 l 1
 436 463 l 1
 570 463 l 1
 556 389 l 1
 370 389 l 1
 355 306 l 1
 542 306 l 1
 529 232 l 1
 343 232 l 1
 302 0 l 1
 211 0 l 1
 252 232 l 1
 65 232 l 1
EndSplineSet
Validated: 1
EndChar

StartChar: brokenbar
Encoding: 166 166 101
Width: 347
Flags: HW
LayerCount: 2
Fore
SplineSet
240 399 m 1
 159 399 l 1
 221 750 l 1
 302 750 l 1
 240 399 l 1
135 -197 m 1
 54 -197 l 1
 116 154 l 1
 197 154 l 1
 135 -197 l 1
EndSplineSet
Validated: 1
EndChar

StartChar: section
Encoding: 167 167 102
Width: 509
Flags: HW
LayerCount: 2
Fore
SplineSet
196 -122 m 0
 226.666666667 -122 252.333333333 -113.666666667 273 -97 c 128
 293.666666667 -80.3333333333 304 -56.6666666667 304 -26 c 0
 304 -2 295.166666667 19 277.5 37 c 128
 259.833333333 55 238.666666667 70.1666666667 214 82.5 c 128
 189.333333333 94.8333333333 164.5 108 139.5 122 c 128
 114.5 136 93.1666666667 155.166666667 75.5 179.5 c 128
 57.8333333333 203.833333333 49 233 49 267 c 0
 49 303 61.1666666667 334.166666667 85.5 360.5 c 128
 109.833333333 386.833333333 142.666666667 406 184 418 c 1
 140 451.333333333 118 494.666666667 118 548 c 0
 118 600.666666667 136.666666667 642.5 174 673.5 c 128
 211.333333333 704.5 258 720 314 720 c 0
 390 720 454.666666667 688.666666667 508 626 c 1
 450 575 l 1
 406 623.666666667 360 648 312 648 c 0
 281.333333333 648 255.666666667 639.666666667 235 623 c 128
 214.333333333 606.333333333 204 582.666666667 204 552 c 0
 204 528 212.666666667 507 230 489 c 128
 247.333333333 471 268.5 455.833333333 293.5 443.5 c 128
 318.5 431.166666667 343.5 418 368.5 404 c 128
 393.5 390 414.666666667 370.833333333 432 346.5 c 128
 449.333333333 322.166666667 458 293 458 259 c 0
 458 223 445.833333333 192 421.5 166 c 128
 397.166666667 140 364.333333333 120.666666667 323 108 c 1
 367 75.3333333333 389 32 389 -22 c 0
 389 -74.6666666667 370.333333333 -116.5 333 -147.5 c 128
 295.666666667 -178.5 249 -194 193 -194 c 0
 116.333333333 -194 50 -161.333333333 -6 -96 c 1
 53 -45 l 1
 99 -96.3333333333 146.666666667 -122 196 -122 c 0
135 271 m 0
 135 258.333333333 137.666666667 246.333333333 143 235 c 128
 148.333333333 223.666666667 153.666666667 214.666666667 159 208 c 128
 164.333333333 201.333333333 174.166666667 193.5 188.5 184.5 c 128
 202.833333333 175.5 213 169.333333333 219 166 c 128
 225 162.666666667 237.666666667 156.333333333 257 147 c 1
 291.666666667 153.666666667 319.5 167.166666667 340.5 187.5 c 128
 361.5 207.833333333 372 230.333333333 372 255 c 0
 372 267.666666667 369.333333333 279.666666667 364 291 c 128
 358.666666667 302.333333333 353.333333333 311.333333333 348 318 c 128
 342.666666667 324.666666667 332.833333333 332.5 318.5 341.5 c 128
 304.166666667 350.5 294 356.666666667 288 360 c 128
 282 363.333333333 269.333333333 369.666666667 250 379 c 1
 215.333333333 372.333333333 187.5 358.833333333 166.5 338.5 c 128
 145.5 318.166666667 135 295.666666667 135 271 c 0
EndSplineSet
Validated: 524289
EndChar

StartChar: dieresis
Encoding: 168 168 103
Width: 336
Flags: HW
LayerCount: 2
Fore
SplineSet
151 642 m 128
 135.666666667 642 122.333333333 647.5 111 658.5 c 128
 99.6666666667 669.5 94 682.666666667 94 698 c 128
 94 713.333333333 99.6666666667 726.5 111 737.5 c 128
 122.333333333 748.5 135.666666667 754 151 754 c 128
 166.333333333 754 179.666666667 748.5 191 737.5 c 128
 202.333333333 726.5 208 713.333333333 208 698 c 128
 208 682.666666667 202.333333333 669.5 191 658.5 c 128
 179.666666667 647.5 166.333333333 642 151 642 c 128
343 642 m 128
 327.666666667 642 314.333333333 647.5 303 658.5 c 128
 291.666666667 669.5 286 682.666666667 286 698 c 128
 286 713.333333333 291.666666667 726.5 303 737.5 c 128
 314.333333333 748.5 327.666666667 754 343 754 c 128
 358.333333333 754 371.666666667 748.5 383 737.5 c 128
 394.333333333 726.5 400 713.333333333 400 698 c 128
 400 682.666666667 394.333333333 669.5 383 658.5 c 128
 371.666666667 647.5 358.333333333 642 343 642 c 128
EndSplineSet
Validated: 524289
EndChar

StartChar: copyright
Encoding: 169 169 104
Width: 823
Flags: HW
LayerCount: 2
Fore
SplineSet
458 720 m 0
 564 720 647 689.166666667 707 627.5 c 128
 767 565.833333333 797 487.666666667 797 393 c 0
 797 278.333333333 758.833333333 180.833333333 682.5 100.5 c 128
 606.166666667 20.1666666667 512.333333333 -20 401 -20 c 0
 295 -20 211.666666667 10.8333333333 151 72.5 c 128
 90.3333333333 134.166666667 60 212.333333333 60 307 c 0
 60 421.666666667 98.3333333333 519.166666667 175 599.5 c 128
 251.666666667 679.833333333 346 720 458 720 c 0
399 33 m 0
 495 33 575.333333333 68 640 138 c 128
 704.666666667 208 737 292.333333333 737 391 c 0
 737 471.666666667 712.333333333 537.833333333 663 589.5 c 128
 613.666666667 641.166666667 546 667 460 667 c 0
 363.333333333 667 282.666666667 632 218 562 c 128
 153.333333333 492 121 407.666666667 121 309 c 0
 121 228.333333333 145.833333333 162.166666667 195.5 110.5 c 128
 245.166666667 58.8333333333 313 33 399 33 c 0
456 577 m 0
 534.666666667 577 593 545.666666667 631 483 c 1
 570 443 l 1
 559.333333333 463 543.5 479.333333333 522.5 492 c 128
 501.5 504.666666667 478.666666667 511 454 511 c 0
 405.333333333 511 365.166666667 493.333333333 333.5 458 c 128
 301.833333333 422.666666667 286 379 286 327 c 0
 286 287.666666667 297.666666667 254.666666667 321 228 c 128
 344.333333333 201.333333333 375.666666667 188 415 188 c 0
 464.333333333 188 506.333333333 208 541 248 c 1
 591 203 l 1
 547.666666667 149 487.666666667 122 411 122 c 0
 352.333333333 122 304.5 140.5 267.5 177.5 c 128
 230.5 214.5 212 262.666666667 212 322 c 0
 212 392 235 452 281 502 c 128
 327 552 385.333333333 577 456 577 c 0
EndSplineSet
Validated: 524289
EndChar

StartChar: ordfeminine
Encoding: 170 170 105
Width: 348
Flags: HW
LayerCount: 2
Fore
SplineSet
177 392 m 0
 148.333333333 392 125.166666667 399.333333333 107.5 414 c 128
 89.8333333333 428.666666667 81 449 81 475 c 128
 81 501 90.1666666667 523 108.5 541 c 128
 126.833333333 559 154.333333333 571 191 577 c 2
 298 595 l 1
 300 608 l 2
 303.333333333 627.333333333 300.166666667 642.666666667 290.5 654 c 128
 280.833333333 665.333333333 266 671 246 671 c 0
 216 671 189 657.333333333 165 630 c 1
 119 668 l 1
 152.333333333 707.333333333 196 727 250 727 c 0
 293.333333333 727 324.5 715 343.5 691 c 128
 362.5 667 368.333333333 635 361 595 c 2
 327 405 l 1
 265 405 l 1
 270 433 l 1
 246 405.666666667 215 392 177 392 c 0
146 483 m 0
 146 456.333333333 161.666666667 443 193 443 c 0
 226.333333333 443 255.333333333 458.666666667 280 490 c 1
 290 548 l 1
 203 534 l 2
 165 527.333333333 146 510.333333333 146 483 c 0
58 258 m 1
 69 319 l 1
 308 319 l 1
 297 258 l 1
 58 258 l 1
EndSplineSet
Validated: 524321
EndChar

StartChar: guillemotleft
Encoding: 171 171 106
Width: 516
Flags: HW
LayerCount: 2
Fore
SplineSet
227 48 m 1
 141 48 l 1
 47 248 l 1
 211 448 l 1
 309 448 l 1
 140 239 l 1
 227 48 l 1
431 48 m 1
 345 48 l 1
 251 248 l 1
 415 448 l 1
 513 448 l 1
 344 239 l 1
 431 48 l 1
EndSplineSet
Validated: 1
EndChar

StartChar: logicalnot
Encoding: 172 172 107
Width: 600
Flags: HW
LayerCount: 2
Fore
SplineSet
570 397 m 1
 519 107 l 1
 445 107 l 1
 483 323 l 1
 69 323 l 1
 81 397 l 1
 570 397 l 1
EndSplineSet
Validated: 1
EndChar

StartChar: registered
Encoding: 174 174 108
Width: 494
Flags: HW
LayerCount: 2
Fore
SplineSet
309 720 m 0
 372.333333333 720 422 701.5 458 664.5 c 128
 494 627.5 512 580.666666667 512 524 c 0
 512 455.333333333 489 396.833333333 443 348.5 c 128
 397 300.166666667 340.666666667 276 274 276 c 0
 210.666666667 276 160.833333333 294.5 124.5 331.5 c 128
 88.1666666667 368.5 70 415.333333333 70 472 c 0
 70 540.666666667 93 599.166666667 139 647.5 c 128
 185 695.833333333 241.666666667 720 309 720 c 0
273 312 m 0
 329 312 375.833333333 332.666666667 413.5 374 c 128
 451.166666667 415.333333333 470 465 470 523 c 0
 470 569.666666667 455.666666667 608.166666667 427 638.5 c 128
 398.333333333 668.833333333 359.333333333 684 310 684 c 0
 254 684 207 663.333333333 169 622 c 128
 131 580.666666667 112 531 112 473 c 0
 112 426.333333333 126.333333333 387.833333333 155 357.5 c 128
 183.666666667 327.166666667 223 312 273 312 c 0
192 370 m 1
 238 629 l 1
 306 629 l 2
 332 629 352.333333333 623 367 611 c 128
 381.666666667 599 389 582 389 560 c 0
 389 542.666666667 383.833333333 527.333333333 373.5 514 c 128
 363.166666667 500.666666667 349 491.333333333 331 486 c 1
 381 370 l 1
 330 370 l 1
 287 480 l 1
 260 480 l 1
 240 370 l 1
 192 370 l 1
303 589 m 2
 279 589 l 1
 267 520 l 1
 293 520 l 2
 307 520 318 523.666666667 326 531 c 128
 334 538.333333333 338 547.666666667 338 559 c 0
 338 579 326.333333333 589 303 589 c 2
EndSplineSet
Validated: 524289
EndChar

StartChar: macron
Encoding: 175 175 109
Width: 336
Flags: HW
LayerCount: 2
Fore
SplineSet
89 659 m 1
 100 724 l 1
 403 724 l 1
 392 659 l 1
 89 659 l 1
EndSplineSet
Validated: 1
EndChar

StartChar: degree
Encoding: 176 176 110
Width: 398
Flags: HW
LayerCount: 2
Fore
SplineSet
268 720 m 0
 312.666666667 720 349 705.833333333 377 677.5 c 128
 405 649.166666667 419 614 419 572 c 0
 419 521.333333333 402.166666667 477.666666667 368.5 441 c 128
 334.833333333 404.333333333 291.333333333 386 238 386 c 0
 193.333333333 386 157 400.166666667 129 428.5 c 128
 101 456.833333333 87 492 87 534 c 0
 87 584.666666667 103.833333333 628.333333333 137.5 665 c 128
 171.166666667 701.666666667 214.666666667 720 268 720 c 0
241 446 m 0
 273.666666667 446 300.166666667 458.166666667 320.5 482.5 c 128
 340.833333333 506.833333333 351 535.666666667 351 569 c 0
 351 595 343 616.666666667 327 634 c 128
 311 651.333333333 290 660 264 660 c 0
 232 660 205.666666667 647.833333333 185 623.5 c 128
 164.333333333 599.166666667 154 570.333333333 154 537 c 0
 154 511 162 489.333333333 178 472 c 128
 194 454.666666667 215 446 241 446 c 0
EndSplineSet
Validated: 524289
EndChar

StartChar: plusminus
Encoding: 177 177 111
Width: 600
Flags: HW
LayerCount: 2
Fore
SplineSet
550 286 m 1
 343 286 l 1
 317 141 l 1
 244 141 l 1
 270 286 l 1
 62 286 l 1
 75 360 l 1
 283 360 l 1
 308 504 l 1
 382 504 l 1
 356 360 l 1
 563 360 l 1
 550 286 l 1
500 0 m 1
 12 0 l 1
 24 74 l 1
 513 74 l 1
 500 0 l 1
EndSplineSet
Validated: 1
EndChar

StartChar: uni00B2
Encoding: 178 178 112
Width: 377
Flags: HW
LayerCount: 2
Fore
SplineSet
73 405 m 1
 84 465 l 1
 260 617 l 2
 289.333333333 642.333333333 309.333333333 662.666666667 320 678 c 128
 330.666666667 693.333333333 336 710.333333333 336 729 c 0
 336 746.333333333 330.166666667 760.5 318.5 771.5 c 128
 306.833333333 782.5 292 788 274 788 c 0
 239.333333333 788 207.666666667 765.666666667 179 721 c 1
 127 758 l 1
 163.666666667 818 214.666666667 848 280 848 c 0
 316 848 345.833333333 837.5 369.5 816.5 c 128
 393.166666667 795.5 405 768.333333333 405 735 c 0
 405 706.333333333 397 680.833333333 381 658.5 c 128
 365 636.166666667 336.666666667 607.333333333 296 572 c 2
 170 465 l 1
 368 465 l 1
 357 405 l 1
 73 405 l 1
EndSplineSet
Validated: 524289
EndChar

StartChar: uni00B3
Encoding: 179 179 113
Width: 377
Flags: HW
LayerCount: 2
Fore
SplineSet
402 735 m 0
 402 711.666666667 395 690.833333333 381 672.5 c 128
 367 654.166666667 347 640.333333333 321 631 c 1
 364.333333333 611 386 577 386 529 c 0
 386 490.333333333 371.666666667 458 343 432 c 128
 314.333333333 406 276.666666667 393 230 393 c 0
 154 393 101 423.333333333 71 484 c 1
 129 516 l 1
 152.333333333 474 186.333333333 453 231 453 c 0
 257 453 277.833333333 460.333333333 293.5 475 c 128
 309.166666667 489.666666667 317 508.666666667 317 532 c 0
 317 554 309.833333333 571.333333333 295.5 584 c 128
 281.166666667 596.666666667 259.666666667 603 231 603 c 2
 177 603 l 1
 187 663 l 1
 245 663 l 2
 273.666666667 663 295.333333333 669.166666667 310 681.5 c 128
 324.666666667 693.833333333 332 710 332 730 c 0
 332 746.666666667 326.5 760.5 315.5 771.5 c 128
 304.5 782.5 290.333333333 788 273 788 c 0
 239.666666667 788 211 770 187 734 c 1
 135 770 l 1
 169 822 217 848 279 848 c 0
 314.333333333 848 343.666666667 837.5 367 816.5 c 128
 390.333333333 795.5 402 768.333333333 402 735 c 0
EndSplineSet
Validated: 524289
EndChar

StartChar: acute
Encoding: 180 180 114
Width: 336
Flags: HW
LayerCount: 2
Fore
SplineSet
212 584 m 1
 126 584 l 1
 257 750 l 1
 356 750 l 1
 212 584 l 1
EndSplineSet
Validated: 1
EndChar

StartChar: paragraph
Encoding: 182 182 115
Width: 647
Flags: HW
LayerCount: 2
Fore
SplineSet
275 -197 m 1
 194 -197 l 1
 283 307 l 1
 274 307 l 2
 216.666666667 307 168.666666667 323 130 355 c 128
 91.3333333333 387 72 431.666666667 72 489 c 0
 72 547.666666667 94.3333333333 597.5 139 638.5 c 128
 183.666666667 679.5 244.666666667 700 322 700 c 2
 434 700 l 1
 275 -197 l 1
381 -197 m 1
 539 700 l 1
 620 700 l 1
 461 -197 l 1
 381 -197 l 1
EndSplineSet
Validated: 524289
EndChar

StartChar: periodcentered
Encoding: 183 183 116
Width: 270
Flags: HW
LayerCount: 2
Fore
SplineSet
141 192 m 128
 123 192 107.666666667 198.166666667 95 210.5 c 128
 82.3333333333 222.833333333 76 237.666666667 76 255 c 128
 76 272.333333333 82.3333333333 287.333333333 95 300 c 128
 107.666666667 312.666666667 123 319 141 319 c 128
 159 319 174.166666667 312.666666667 186.5 300 c 128
 198.833333333 287.333333333 205 272.333333333 205 255 c 128
 205 237.666666667 198.833333333 222.833333333 186.5 210.5 c 128
 174.166666667 198.166666667 159 192 141 192 c 128
EndSplineSet
Validated: 524289
EndChar

StartChar: cedilla
Encoding: 184 184 117
Width: 336
Flags: HW
LayerCount: 2
Fore
SplineSet
111 8 m 1
 175 3 l 1
 111 -65 l 1
 137 -65.6666666667 158.666666667 -74 176 -90 c 128
 193.333333333 -106 202 -125.333333333 202 -148 c 0
 202 -176.666666667 191.333333333 -200.5 170 -219.5 c 128
 148.666666667 -238.5 120.666666667 -248 86 -248 c 0
 42.6666666667 -248 7.66666666667 -234.666666667 -19 -208 c 1
 20 -164 l 1
 37.3333333333 -184.666666667 58.6666666667 -195 84 -195 c 0
 99.3333333333 -195 111.666666667 -191.166666667 121 -183.5 c 128
 130.333333333 -175.833333333 135 -165 135 -151 c 0
 135 -139.666666667 130.833333333 -130.166666667 122.5 -122.5 c 128
 114.166666667 -114.833333333 103 -111 89 -111 c 0
 76.3333333333 -111 63.3333333333 -114 50 -120 c 1
 25 -84 l 1
 111 8 l 1
EndSplineSet
Validated: 524289
EndChar

StartChar: uni00B9
Encoding: 185 185 118
Width: 377
Flags: HW
LayerCount: 2
Fore
SplineSet
68 405 m 1
 79 465 l 1
 200 465 l 1
 252 760 l 1
 144 705 l 1
 117 758 l 1
 266 836 l 1
 332 836 l 1
 267 465 l 1
 373 465 l 1
 362 405 l 1
 68 405 l 1
EndSplineSet
Validated: 1
EndChar

StartChar: ordmasculine
Encoding: 186 186 119
Width: 398
Flags: HW
LayerCount: 2
Fore
SplineSet
271 727 m 0
 317 727 353.5 713.166666667 380.5 685.5 c 128
 407.5 657.833333333 421 622.333333333 421 579 c 0
 421 528.333333333 403.5 484.5 368.5 447.5 c 128
 333.5 410.5 290 392 238 392 c 0
 191.333333333 392 154.5 406 127.5 434 c 128
 100.5 462 87 497.666666667 87 541 c 0
 87 591.666666667 104.333333333 635.333333333 139 672 c 128
 173.666666667 708.666666667 217.666666667 727 271 727 c 0
239 452 m 0
 272.333333333 452 299.833333333 464.5 321.5 489.5 c 128
 343.166666667 514.5 354 544.333333333 354 579 c 0
 354 605 346.166666667 626.333333333 330.5 643 c 128
 314.833333333 659.666666667 294 668 268 668 c 0
 234.666666667 668 207.166666667 655.333333333 185.5 630 c 128
 163.833333333 604.666666667 153 574.666666667 153 540 c 0
 153 514.666666667 160.833333333 493.666666667 176.5 477 c 128
 192.166666667 460.333333333 213 452 239 452 c 0
60 258 m 1
 71 319 l 1
 353 319 l 1
 342 258 l 1
 60 258 l 1
EndSplineSet
Validated: 524289
EndChar

StartChar: guillemotright
Encoding: 187 187 120
Width: 516
Flags: HW
LayerCount: 2
Fore
SplineSet
89 448 m 1
 176 448 l 1
 269 248 l 1
 105 48 l 1
 7 48 l 1
 177 258 l 1
 89 448 l 1
293 448 m 1
 380 448 l 1
 473 248 l 1
 309 48 l 1
 211 48 l 1
 381 258 l 1
 293 448 l 1
EndSplineSet
Validated: 1
EndChar

StartChar: onequarter
Encoding: 188 188 121
Width: 895
Flags: HW
LayerCount: 2
Fore
SplineSet
45 270 m 1
 56 330 l 1
 177 330 l 1
 229 625 l 1
 121 570 l 1
 94 623 l 1
 243 701 l 1
 309 701 l 1
 244 330 l 1
 350 330 l 1
 339 270 l 1
 45 270 l 1
163 0 m 1
 779 700 l 1
 873 700 l 1
 257 0 l 1
 163 0 l 1
527 120 m 1
 538 180 l 1
 766 430 l 1
 849 430 l 1
 805 180 l 1
 850 180 l 1
 840 120 l 1
 794 120 l 1
 773 0 l 1
 706 0 l 1
 727 120 l 1
 527 120 l 1
610 180 m 1
 738 180 l 1
 769 355 l 1
 610 180 l 1
EndSplineSet
Validated: 1
EndChar

StartChar: onehalf
Encoding: 189 189 122
Width: 975
Flags: HW
LayerCount: 2
Fore
SplineSet
45 270 m 1
 56 330 l 1
 177 330 l 1
 229 625 l 1
 121 570 l 1
 94 623 l 1
 243 701 l 1
 309 701 l 1
 244 330 l 1
 350 330 l 1
 339 270 l 1
 45 270 l 1
163 0 m 1
 779 700 l 1
 873 700 l 1
 257 0 l 1
 163 0 l 1
601 0 m 1
 612 60 l 1
 788 212 l 2
 817.333333333 237.333333333 837.333333333 257.666666667 848 273 c 128
 858.666666667 288.333333333 864 305.333333333 864 324 c 0
 864 341.333333333 858.166666667 355.5 846.5 366.5 c 128
 834.833333333 377.5 820 383 802 383 c 0
 767.333333333 383 735.666666667 360.666666667 707 316 c 1
 655 353 l 1
 691.666666667 413 742.666666667 443 808 443 c 0
 844 443 873.833333333 432.5 897.5 411.5 c 128
 921.166666667 390.5 933 363.333333333 933 330 c 0
 933 301.333333333 925 275.833333333 909 253.5 c 128
 893 231.166666667 864.666666667 202.333333333 824 167 c 2
 698 60 l 1
 896 60 l 1
 885 0 l 1
 601 0 l 1
EndSplineSet
Validated: 524289
EndChar

StartChar: threequarters
Encoding: 190 190 123
Width: 861
Flags: HW
LayerCount: 2
Fore
SplineSet
379 600 m 0
 379 576.666666667 372 555.833333333 358 537.5 c 128
 344 519.166666667 324 505.333333333 298 496 c 1
 341.333333333 476 363 442 363 394 c 0
 363 355.333333333 348.666666667 323 320 297 c 128
 291.333333333 271 253.666666667 258 207 258 c 0
 131 258 78 288.333333333 48 349 c 1
 106 381 l 1
 129.333333333 339 163.333333333 318 208 318 c 0
 234 318 254.833333333 325.333333333 270.5 340 c 128
 286.166666667 354.666666667 294 373.666666667 294 397 c 0
 294 419 286.833333333 436.333333333 272.5 449 c 128
 258.166666667 461.666666667 236.666666667 468 208 468 c 2
 154 468 l 1
 164 528 l 1
 222 528 l 2
 250.666666667 528 272.333333333 534.166666667 287 546.5 c 128
 301.666666667 558.833333333 309 575 309 595 c 0
 309 611.666666667 303.5 625.5 292.5 636.5 c 128
 281.5 647.5 267.333333333 653 250 653 c 0
 216.666666667 653 188 635 164 599 c 1
 112 635 l 1
 146 687 194 713 256 713 c 0
 291.333333333 713 320.666666667 702.5 344 681.5 c 128
 367.333333333 660.5 379 633.333333333 379 600 c 0
129 0 m 1
 745 700 l 1
 839 700 l 1
 223 0 l 1
 129 0 l 1
493 120 m 1
 504 180 l 1
 732 430 l 1
 815 430 l 1
 771 180 l 1
 816 180 l 1
 806 120 l 1
 760 120 l 1
 739 0 l 1
 672 0 l 1
 693 120 l 1
 493 120 l 1
576 180 m 1
 704 180 l 1
 735 355 l 1
 576 180 l 1
EndSplineSet
Validated: 524289
EndChar

StartChar: questiondown
Encoding: 191 191 124
Width: 494
Flags: HW
LayerCount: 2
Fore
SplineSet
324 524 m 0
 342.666666667 524 358.166666667 517.833333333 370.5 505.5 c 128
 382.833333333 493.166666667 389 478 389 460 c 0
 389 442.666666667 382.833333333 427.833333333 370.5 415.5 c 128
 358.166666667 403.166666667 342.666666667 397 324 397 c 0
 306.666666667 397 291.666666667 403.166666667 279 415.5 c 128
 266.333333333 427.833333333 260 442.666666667 260 460 c 0
 260 478 266.333333333 493.166666667 279 505.5 c 128
 291.666666667 517.833333333 306.666666667 524 324 524 c 0
331 309 m 1
 319 148 l 1
 157.666666667 133.333333333 77 77.6666666667 77 -19 c 0
 77 -49.6666666667 87.6666666667 -75.5 109 -96.5 c 128
 130.333333333 -117.5 159 -128 195 -128 c 0
 247.666666667 -128 294 -101.333333333 334 -48 c 1
 401 -95 l 1
 348.333333333 -169.666666667 277 -207 187 -207 c 0
 127.666666667 -207 79 -190.333333333 41 -157 c 128
 3 -123.666666667 -16 -79 -16 -23 c 0
 -16 40.3333333333 7.33333333333 92.3333333333 54 133 c 128
 100.666666667 173.666666667 163.666666667 199 243 209 c 1
 266 309 l 1
 331 309 l 1
EndSplineSet
Validated: 524289
EndChar

StartChar: Agrave
Encoding: 192 192 125
Width: 716
Flags: HW
LayerCount: 2
Fore
SplineSet
409 760 m 1
 309 895 l 1
 407 895 l 1
 493 760 l 1
 409 760 l 1
-19 0 m 1
 375 700 l 1
 500 700 l 1
 647 0 l 1
 550 0 l 1
 509 206 l 1
 198 206 l 1
 84 0 l 1
 -19 0 l 1
243 287 m 1
 493 287 l 1
 427 617 l 1
 243 287 l 1
EndSplineSet
Validated: 1
EndChar

StartChar: Aacute
Encoding: 193 193 126
Width: 716
Flags: HW
LayerCount: 2
Fore
SplineSet
494 760 m 1
 404 760 l 1
 537 895 l 1
 642 895 l 1
 494 760 l 1
-19 0 m 1
 375 700 l 1
 500 700 l 1
 647 0 l 1
 550 0 l 1
 509 206 l 1
 198 206 l 1
 84 0 l 1
 -19 0 l 1
243 287 m 1
 493 287 l 1
 427 617 l 1
 243 287 l 1
EndSplineSet
Validated: 1
EndChar

StartChar: Acircumflex
Encoding: 194 194 127
Width: 716
Flags: HW
LayerCount: 2
Fore
SplineSet
368 760 m 1
 287 760 l 1
 420 895 l 1
 524 895 l 1
 609 760 l 1
 537 760 l 1
 469 852 l 1
 368 760 l 1
-19 0 m 1
 375 700 l 1
 500 700 l 1
 647 0 l 1
 550 0 l 1
 509 206 l 1
 198 206 l 1
 84 0 l 1
 -19 0 l 1
243 287 m 1
 493 287 l 1
 427 617 l 1
 243 287 l 1
EndSplineSet
Validated: 1
EndChar

StartChar: Atilde
Encoding: 195 195 128
Width: 716
Flags: HW
LayerCount: 2
Fore
SplineSet
288 766 m 1
 295 805 l 2
 299 834.333333333 309.5 857.333333333 326.5 874 c 128
 343.5 890.666666667 364.333333333 899 389 899 c 0
 408.333333333 899 425.5 894.666666667 440.5 886 c 128
 455.5 877.333333333 466.833333333 867.833333333 474.5 857.5 c 128
 482.166666667 847.166666667 490.5 837.666666667 499.5 829 c 128
 508.5 820.333333333 517.333333333 816 526 816 c 0
 542.666666667 816 553.666666667 828.666666667 559 854 c 2
 565 889 l 1
 631 889 l 1
 624 850 l 2
 620 820.666666667 609.333333333 797.666666667 592 781 c 128
 574.666666667 764.333333333 553.666666667 756 529 756 c 0
 509.666666667 756 492.333333333 760.333333333 477 769 c 128
 461.666666667 777.666666667 450.166666667 787.166666667 442.5 797.5 c 128
 434.833333333 807.833333333 426.5 817.333333333 417.5 826 c 128
 408.5 834.666666667 400 839 392 839 c 0
 374.666666667 839 364 826.333333333 360 801 c 2
 354 766 l 1
 288 766 l 1
-19 0 m 1
 375 700 l 1
 500 700 l 1
 647 0 l 1
 550 0 l 1
 509 206 l 1
 198 206 l 1
 84 0 l 1
 -19 0 l 1
243 287 m 1
 493 287 l 1
 427 617 l 1
 243 287 l 1
EndSplineSet
Validated: 524289
EndChar

StartChar: Adieresis
Encoding: 196 196 129
Width: 716
Flags: HW
LayerCount: 2
Fore
SplineSet
367 789 m 0
 351.666666667 789 338.833333333 794.166666667 328.5 804.5 c 128
 318.166666667 814.833333333 313 827.333333333 313 842 c 128
 313 856.666666667 318.333333333 869.166666667 329 879.5 c 128
 339.666666667 889.833333333 352.333333333 895 367 895 c 128
 381.666666667 895 394.333333333 889.833333333 405 879.5 c 128
 415.666666667 869.166666667 421 856.666666667 421 842 c 128
 421 827.333333333 415.666666667 814.833333333 405 804.5 c 128
 394.333333333 794.166666667 381.666666667 789 367 789 c 0
558 789 m 0
 542.666666667 789 529.666666667 794.166666667 519 804.5 c 128
 508.333333333 814.833333333 503 827.333333333 503 842 c 128
 503 856.666666667 508.333333333 869.166666667 519 879.5 c 128
 529.666666667 889.833333333 542.666666667 895 558 895 c 0
 572.666666667 895 585.333333333 889.833333333 596 879.5 c 128
 606.666666667 869.166666667 612 856.666666667 612 842 c 128
 612 827.333333333 606.666666667 814.833333333 596 804.5 c 128
 585.333333333 794.166666667 572.666666667 789 558 789 c 0
-19 0 m 1
 375 700 l 1
 500 700 l 1
 647 0 l 1
 550 0 l 1
 509 206 l 1
 198 206 l 1
 84 0 l 1
 -19 0 l 1
243 287 m 1
 493 287 l 1
 427 617 l 1
 243 287 l 1
EndSplineSet
Validated: 524289
EndChar

StartChar: Aring
Encoding: 197 197 130
Width: 716
Flags: HW
LayerCount: 2
Fore
SplineSet
473 966 m 0
 505 966 531.833333333 956.666666667 553.5 938 c 128
 575.166666667 919.333333333 586 894.333333333 586 863 c 0
 586 825 573.333333333 795 548 773 c 128
 522.666666667 751 491.666666667 740 455 740 c 0
 423 740 396.166666667 749.166666667 374.5 767.5 c 128
 352.833333333 785.833333333 342 810.666666667 342 842 c 0
 342 880 354.5 910.166666667 379.5 932.5 c 128
 404.5 954.833333333 435.666666667 966 473 966 c 0
470 915 m 0
 448.666666667 915 431.5 908.5 418.5 895.5 c 128
 405.5 882.5 399 866 399 846 c 0
 399 829.333333333 404.333333333 816 415 806 c 128
 425.666666667 796 440 791 458 791 c 0
 479.333333333 791 496.5 797.333333333 509.5 810 c 128
 522.5 822.666666667 529 839.333333333 529 860 c 0
 529 876.666666667 523.5 890 512.5 900 c 128
 501.5 910 487.333333333 915 470 915 c 0
-19 0 m 1
 375 700 l 1
 500 700 l 1
 647 0 l 1
 550 0 l 1
 509 206 l 1
 198 206 l 1
 84 0 l 1
 -19 0 l 1
243 287 m 1
 493 287 l 1
 427 617 l 1
 243 287 l 1
EndSplineSet
Validated: 524289
EndChar

StartChar: AE
Encoding: 198 198 131
Width: 949
Flags: HW
LayerCount: 2
Fore
SplineSet
-24 0 m 1
 522 700 l 1
 956 700 l 1
 941 620 l 1
 669 620 l 1
 630 396 l 1
 864 396 l 1
 849 317 l 1
 616 317 l 1
 574 80 l 1
 846 80 l 1
 832 0 l 1
 466 0 l 1
 502 206 l 1
 250 206 l 1
 91 0 l 1
 -24 0 l 1
313 287 m 1
 516 287 l 1
 576 628 l 1
 313 287 l 1
EndSplineSet
Validated: 1
EndChar

StartChar: Ccedilla
Encoding: 199 199 132
Width: 733
Flags: HW
LayerCount: 2
Fore
SplineSet
457 720 m 0
 519.666666667 720 575.333333333 706 624 678 c 128
 672.666666667 650 710.333333333 613.333333333 737 568 c 1
 656 514 l 1
 637.333333333 548.666666667 609.833333333 576.833333333 573.5 598.5 c 128
 537.166666667 620.166666667 497.333333333 631 454 631 c 0
 368.666666667 631 298 600 242 538 c 128
 186 476 158 400.333333333 158 311 c 0
 158 242.333333333 179 184.666666667 221 138 c 128
 263 91.3333333333 318 68 386 68 c 0
 471.333333333 68 545.333333333 103 608 173 c 1
 675 112 l 1
 611.666666667 35.3333333333 528.666666667 -8 426 -18 c 1
 314 -160 l 1
 225 -160 l 1
 338 -17 l 1
 254.666666667 -7.66666666667 187.5 26.5 136.5 85.5 c 128
 85.5 144.5 60 217.666666667 60 305 c 0
 60 418.333333333 97.3333333333 515.833333333 172 597.5 c 128
 246.666666667 679.166666667 341.666666667 720 457 720 c 0
EndSplineSet
Validated: 524289
EndChar

StartChar: Egrave
Encoding: 200 200 133
Width: 547
Flags: HW
LayerCount: 2
Fore
SplineSet
328 760 m 1
 228 895 l 1
 326 895 l 1
 412 760 l 1
 328 760 l 1
63 0 m 1
 187 700 l 1
 553 700 l 1
 539 620 l 1
 267 620 l 1
 227 396 l 1
 461 396 l 1
 447 317 l 1
 213 317 l 1
 171 80 l 1
 444 80 l 1
 430 0 l 1
 63 0 l 1
EndSplineSet
Validated: 1
EndChar

StartChar: Eacute
Encoding: 201 201 134
Width: 547
Flags: HW
LayerCount: 2
Fore
SplineSet
413 760 m 1
 323 760 l 1
 456 895 l 1
 561 895 l 1
 413 760 l 1
63 0 m 1
 187 700 l 1
 553 700 l 1
 539 620 l 1
 267 620 l 1
 227 396 l 1
 461 396 l 1
 447 317 l 1
 213 317 l 1
 171 80 l 1
 444 80 l 1
 430 0 l 1
 63 0 l 1
EndSplineSet
Validated: 1
EndChar

StartChar: Ecircumflex
Encoding: 202 202 135
Width: 547
Flags: HW
LayerCount: 2
Fore
SplineSet
287 760 m 1
 206 760 l 1
 339 895 l 1
 443 895 l 1
 528 760 l 1
 456 760 l 1
 388 852 l 1
 287 760 l 1
63 0 m 1
 187 700 l 1
 553 700 l 1
 539 620 l 1
 267 620 l 1
 227 396 l 1
 461 396 l 1
 447 317 l 1
 213 317 l 1
 171 80 l 1
 444 80 l 1
 430 0 l 1
 63 0 l 1
EndSplineSet
Validated: 1
EndChar

StartChar: Edieresis
Encoding: 203 203 136
Width: 547
Flags: HW
LayerCount: 2
Fore
SplineSet
286 789 m 0
 270.666666667 789 257.833333333 794.166666667 247.5 804.5 c 128
 237.166666667 814.833333333 232 827.333333333 232 842 c 128
 232 856.666666667 237.333333333 869.166666667 248 879.5 c 128
 258.666666667 889.833333333 271.333333333 895 286 895 c 128
 300.666666667 895 313.333333333 889.833333333 324 879.5 c 128
 334.666666667 869.166666667 340 856.666666667 340 842 c 128
 340 827.333333333 334.666666667 814.833333333 324 804.5 c 128
 313.333333333 794.166666667 300.666666667 789 286 789 c 0
477 789 m 0
 461.666666667 789 448.666666667 794.166666667 438 804.5 c 128
 427.333333333 814.833333333 422 827.333333333 422 842 c 128
 422 856.666666667 427.333333333 869.166666667 438 879.5 c 128
 448.666666667 889.833333333 461.666666667 895 477 895 c 0
 491.666666667 895 504.333333333 889.833333333 515 879.5 c 128
 525.666666667 869.166666667 531 856.666666667 531 842 c 128
 531 827.333333333 525.666666667 814.833333333 515 804.5 c 128
 504.333333333 794.166666667 491.666666667 789 477 789 c 0
63 0 m 1
 187 700 l 1
 553 700 l 1
 539 620 l 1
 267 620 l 1
 227 396 l 1
 461 396 l 1
 447 317 l 1
 213 317 l 1
 171 80 l 1
 444 80 l 1
 430 0 l 1
 63 0 l 1
EndSplineSet
Validated: 524289
EndChar

StartChar: Igrave
Encoding: 204 204 137
Width: 308
Flags: HW
LayerCount: 2
Fore
SplineSet
205 760 m 1
 105 895 l 1
 203 895 l 1
 289 760 l 1
 205 760 l 1
63 0 m 1
 187 700 l 1
 281 700 l 1
 157 0 l 1
 63 0 l 1
EndSplineSet
Validated: 1
EndChar

StartChar: Iacute
Encoding: 205 205 138
Width: 308
Flags: HW
LayerCount: 2
Fore
SplineSet
290 760 m 1
 200 760 l 1
 333 895 l 1
 438 895 l 1
 290 760 l 1
63 0 m 1
 187 700 l 1
 281 700 l 1
 157 0 l 1
 63 0 l 1
EndSplineSet
Validated: 1
EndChar

StartChar: Icircumflex
Encoding: 206 206 139
Width: 308
Flags: HW
LayerCount: 2
Fore
SplineSet
164 760 m 1
 83 760 l 1
 216 895 l 1
 320 895 l 1
 405 760 l 1
 333 760 l 1
 265 852 l 1
 164 760 l 1
63 0 m 1
 187 700 l 1
 281 700 l 1
 157 0 l 1
 63 0 l 1
EndSplineSet
Validated: 1
EndChar

StartChar: Idieresis
Encoding: 207 207 140
Width: 308
Flags: HW
LayerCount: 2
Fore
SplineSet
163 789 m 0
 147.666666667 789 134.833333333 794.166666667 124.5 804.5 c 128
 114.166666667 814.833333333 109 827.333333333 109 842 c 128
 109 856.666666667 114.333333333 869.166666667 125 879.5 c 128
 135.666666667 889.833333333 148.333333333 895 163 895 c 128
 177.666666667 895 190.333333333 889.833333333 201 879.5 c 128
 211.666666667 869.166666667 217 856.666666667 217 842 c 128
 217 827.333333333 211.666666667 814.833333333 201 804.5 c 128
 190.333333333 794.166666667 177.666666667 789 163 789 c 0
354 789 m 0
 338.666666667 789 325.666666667 794.166666667 315 804.5 c 128
 304.333333333 814.833333333 299 827.333333333 299 842 c 128
 299 856.666666667 304.333333333 869.166666667 315 879.5 c 128
 325.666666667 889.833333333 338.666666667 895 354 895 c 0
 368.666666667 895 381.333333333 889.833333333 392 879.5 c 128
 402.666666667 869.166666667 408 856.666666667 408 842 c 128
 408 827.333333333 402.666666667 814.833333333 392 804.5 c 128
 381.333333333 794.166666667 368.666666667 789 354 789 c 0
63 0 m 1
 187 700 l 1
 281 700 l 1
 157 0 l 1
 63 0 l 1
EndSplineSet
Validated: 524289
EndChar

StartChar: Eth
Encoding: 208 208 141
Width: 776
Flags: HW
LayerCount: 2
Fore
SplineSet
63 0 m 1
 121 326 l 1
 13 326 l 1
 25 390 l 1
 132 390 l 1
 187 700 l 1
 397 700 l 2
 503.666666667 700 589 671.666666667 653 615 c 128
 717 558.333333333 749 482 749 386 c 0
 749 335.333333333 739.333333333 286.833333333 720 240.5 c 128
 700.666666667 194.166666667 673.5 153.166666667 638.5 117.5 c 128
 603.5 81.8333333333 559.5 53.3333333333 506.5 32 c 128
 453.5 10.6666666667 395.333333333 0 332 0 c 2
 63 0 l 1
397 614 m 2
 266 614 l 1
 226 390 l 1
 403 390 l 1
 392 326 l 1
 215 326 l 1
 172 86 l 1
 332 86 l 2
 428 86 505.166666667 114.666666667 563.5 172 c 128
 621.833333333 229.333333333 651 299.333333333 651 382 c 0
 651 452 628.166666667 508.166666667 582.5 550.5 c 128
 536.833333333 592.833333333 475 614 397 614 c 2
EndSplineSet
Validated: 524289
EndChar

StartChar: Ntilde
Encoding: 209 209 142
Width: 810
Flags: HW
LayerCount: 2
Fore
SplineSet
335 766 m 1
 342 805 l 2
 346 834.333333333 356.5 857.333333333 373.5 874 c 128
 390.5 890.666666667 411.333333333 899 436 899 c 0
 455.333333333 899 472.5 894.666666667 487.5 886 c 128
 502.5 877.333333333 513.833333333 867.833333333 521.5 857.5 c 128
 529.166666667 847.166666667 537.5 837.666666667 546.5 829 c 128
 555.5 820.333333333 564.333333333 816 573 816 c 0
 589.666666667 816 600.666666667 828.666666667 606 854 c 2
 612 889 l 1
 678 889 l 1
 671 850 l 2
 667 820.666666667 656.333333333 797.666666667 639 781 c 128
 621.666666667 764.333333333 600.666666667 756 576 756 c 0
 556.666666667 756 539.333333333 760.333333333 524 769 c 128
 508.666666667 777.666666667 497.166666667 787.166666667 489.5 797.5 c 128
 481.833333333 807.833333333 473.5 817.333333333 464.5 826 c 128
 455.5 834.666666667 447 839 439 839 c 0
 421.666666667 839 411 826.333333333 407 801 c 2
 401 766 l 1
 335 766 l 1
63 0 m 1
 187 700 l 1
 307 700 l 1
 585 111 l 1
 689 700 l 1
 783 700 l 1
 659 0 l 1
 538 0 l 1
 261 587 l 1
 157 0 l 1
 63 0 l 1
EndSplineSet
Validated: 524289
EndChar

StartChar: Ograve
Encoding: 210 210 143
Width: 811
Flags: HW
LayerCount: 2
Fore
SplineSet
451 760 m 1
 351 895 l 1
 449 895 l 1
 535 760 l 1
 451 760 l 1
459 720 m 0
 555 720 633.5 689.5 694.5 628.5 c 128
 755.5 567.5 786 489.666666667 786 395 c 0
 786 321 769.5 252.5 736.5 189.5 c 128
 703.5 126.5 656.166666667 75.8333333333 594.5 37.5 c 128
 532.833333333 -0.833333333333 463.666666667 -20 387 -20 c 0
 291 -20 212.666666667 10.5 152 71.5 c 128
 91.3333333333 132.5 61 210.333333333 61 305 c 0
 61 418.333333333 98.5 515.833333333 173.5 597.5 c 128
 248.5 679.166666667 343.666666667 720 459 720 c 0
389 68 m 0
 475 68 546.333333333 99.1666666667 603 161.5 c 128
 659.666666667 223.833333333 688 299.666666667 688 389 c 0
 688 457.666666667 666.833333333 515.333333333 624.5 562 c 128
 582.166666667 608.666666667 526.333333333 632 457 632 c 0
 371 632 299.833333333 600.833333333 243.5 538.5 c 128
 187.166666667 476.166666667 159 400.333333333 159 311 c 0
 159 242.333333333 180 184.666666667 222 138 c 128
 264 91.3333333333 319.666666667 68 389 68 c 0
EndSplineSet
Validated: 524289
EndChar

StartChar: Oacute
Encoding: 211 211 144
Width: 811
Flags: HW
LayerCount: 2
Fore
SplineSet
536 760 m 1
 446 760 l 1
 579 895 l 1
 684 895 l 1
 536 760 l 1
459 720 m 0
 555 720 633.5 689.5 694.5 628.5 c 128
 755.5 567.5 786 489.666666667 786 395 c 0
 786 321 769.5 252.5 736.5 189.5 c 128
 703.5 126.5 656.166666667 75.8333333333 594.5 37.5 c 128
 532.833333333 -0.833333333333 463.666666667 -20 387 -20 c 0
 291 -20 212.666666667 10.5 152 71.5 c 128
 91.3333333333 132.5 61 210.333333333 61 305 c 0
 61 418.333333333 98.5 515.833333333 173.5 597.5 c 128
 248.5 679.166666667 343.666666667 720 459 720 c 0
389 68 m 0
 475 68 546.333333333 99.1666666667 603 161.5 c 128
 659.666666667 223.833333333 688 299.666666667 688 389 c 0
 688 457.666666667 666.833333333 515.333333333 624.5 562 c 128
 582.166666667 608.666666667 526.333333333 632 457 632 c 0
 371 632 299.833333333 600.833333333 243.5 538.5 c 128
 187.166666667 476.166666667 159 400.333333333 159 311 c 0
 159 242.333333333 180 184.666666667 222 138 c 128
 264 91.3333333333 319.666666667 68 389 68 c 0
EndSplineSet
Validated: 524289
EndChar

StartChar: Ocircumflex
Encoding: 212 212 145
Width: 811
Flags: HW
LayerCount: 2
Fore
SplineSet
410 760 m 1
 329 760 l 1
 462 895 l 1
 566 895 l 1
 651 760 l 1
 579 760 l 1
 511 852 l 1
 410 760 l 1
459 720 m 0
 555 720 633.5 689.5 694.5 628.5 c 128
 755.5 567.5 786 489.666666667 786 395 c 0
 786 321 769.5 252.5 736.5 189.5 c 128
 703.5 126.5 656.166666667 75.8333333333 594.5 37.5 c 128
 532.833333333 -0.833333333333 463.666666667 -20 387 -20 c 0
 291 -20 212.666666667 10.5 152 71.5 c 128
 91.3333333333 132.5 61 210.333333333 61 305 c 0
 61 418.333333333 98.5 515.833333333 173.5 597.5 c 128
 248.5 679.166666667 343.666666667 720 459 720 c 0
389 68 m 0
 475 68 546.333333333 99.1666666667 603 161.5 c 128
 659.666666667 223.833333333 688 299.666666667 688 389 c 0
 688 457.666666667 666.833333333 515.333333333 624.5 562 c 128
 582.166666667 608.666666667 526.333333333 632 457 632 c 0
 371 632 299.833333333 600.833333333 243.5 538.5 c 128
 187.166666667 476.166666667 159 400.333333333 159 311 c 0
 159 242.333333333 180 184.666666667 222 138 c 128
 264 91.3333333333 319.666666667 68 389 68 c 0
EndSplineSet
Validated: 524289
EndChar

StartChar: Otilde
Encoding: 213 213 146
Width: 811
Flags: HW
LayerCount: 2
Fore
SplineSet
330 766 m 1
 337 805 l 2
 341 834.333333333 351.5 857.333333333 368.5 874 c 128
 385.5 890.666666667 406.333333333 899 431 899 c 0
 450.333333333 899 467.5 894.666666667 482.5 886 c 128
 497.5 877.333333333 508.833333333 867.833333333 516.5 857.5 c 128
 524.166666667 847.166666667 532.5 837.666666667 541.5 829 c 128
 550.5 820.333333333 559.333333333 816 568 816 c 0
 584.666666667 816 595.666666667 828.666666667 601 854 c 2
 607 889 l 1
 673 889 l 1
 666 850 l 2
 662 820.666666667 651.333333333 797.666666667 634 781 c 128
 616.666666667 764.333333333 595.666666667 756 571 756 c 0
 551.666666667 756 534.333333333 760.333333333 519 769 c 128
 503.666666667 777.666666667 492.166666667 787.166666667 484.5 797.5 c 128
 476.833333333 807.833333333 468.5 817.333333333 459.5 826 c 128
 450.5 834.666666667 442 839 434 839 c 0
 416.666666667 839 406 826.333333333 402 801 c 2
 396 766 l 1
 330 766 l 1
459 720 m 0
 555 720 633.5 689.5 694.5 628.5 c 128
 755.5 567.5 786 489.666666667 786 395 c 0
 786 321 769.5 252.5 736.5 189.5 c 128
 703.5 126.5 656.166666667 75.8333333333 594.5 37.5 c 128
 532.833333333 -0.833333333333 463.666666667 -20 387 -20 c 0
 291 -20 212.666666667 10.5 152 71.5 c 128
 91.3333333333 132.5 61 210.333333333 61 305 c 0
 61 418.333333333 98.5 515.833333333 173.5 597.5 c 128
 248.5 679.166666667 343.666666667 720 459 720 c 0
389 68 m 0
 475 68 546.333333333 99.1666666667 603 161.5 c 128
 659.666666667 223.833333333 688 299.666666667 688 389 c 0
 688 457.666666667 666.833333333 515.333333333 624.5 562 c 128
 582.166666667 608.666666667 526.333333333 632 457 632 c 0
 371 632 299.833333333 600.833333333 243.5 538.5 c 128
 187.166666667 476.166666667 159 400.333333333 159 311 c 0
 159 242.333333333 180 184.666666667 222 138 c 128
 264 91.3333333333 319.666666667 68 389 68 c 0
EndSplineSet
Validated: 524289
EndChar

StartChar: Odieresis
Encoding: 214 214 147
Width: 811
Flags: HW
LayerCount: 2
Fore
SplineSet
409 789 m 0
 393.666666667 789 380.833333333 794.166666667 370.5 804.5 c 128
 360.166666667 814.833333333 355 827.333333333 355 842 c 128
 355 856.666666667 360.333333333 869.166666667 371 879.5 c 128
 381.666666667 889.833333333 394.333333333 895 409 895 c 128
 423.666666667 895 436.333333333 889.833333333 447 879.5 c 128
 457.666666667 869.166666667 463 856.666666667 463 842 c 128
 463 827.333333333 457.666666667 814.833333333 447 804.5 c 128
 436.333333333 794.166666667 423.666666667 789 409 789 c 0
600 789 m 0
 584.666666667 789 571.666666667 794.166666667 561 804.5 c 128
 550.333333333 814.833333333 545 827.333333333 545 842 c 128
 545 856.666666667 550.333333333 869.166666667 561 879.5 c 128
 571.666666667 889.833333333 584.666666667 895 600 895 c 0
 614.666666667 895 627.333333333 889.833333333 638 879.5 c 128
 648.666666667 869.166666667 654 856.666666667 654 842 c 128
 654 827.333333333 648.666666667 814.833333333 638 804.5 c 128
 627.333333333 794.166666667 614.666666667 789 600 789 c 0
459 720 m 0
 555 720 633.5 689.5 694.5 628.5 c 128
 755.5 567.5 786 489.666666667 786 395 c 0
 786 321 769.5 252.5 736.5 189.5 c 128
 703.5 126.5 656.166666667 75.8333333333 594.5 37.5 c 128
 532.833333333 -0.833333333333 463.666666667 -20 387 -20 c 0
 291 -20 212.666666667 10.5 152 71.5 c 128
 91.3333333333 132.5 61 210.333333333 61 305 c 0
 61 418.333333333 98.5 515.833333333 173.5 597.5 c 128
 248.5 679.166666667 343.666666667 720 459 720 c 0
389 68 m 0
 475 68 546.333333333 99.1666666667 603 161.5 c 128
 659.666666667 223.833333333 688 299.666666667 688 389 c 0
 688 457.666666667 666.833333333 515.333333333 624.5 562 c 128
 582.166666667 608.666666667 526.333333333 632 457 632 c 0
 371 632 299.833333333 600.833333333 243.5 538.5 c 128
 187.166666667 476.166666667 159 400.333333333 159 311 c 0
 159 242.333333333 180 184.666666667 222 138 c 128
 264 91.3333333333 319.666666667 68 389 68 c 0
EndSplineSet
Validated: 524289
EndChar

StartChar: multiply
Encoding: 215 215 148
Width: 600
Flags: HW
LayerCount: 2
Fore
SplineSet
449 0 m 1
 294 199 l 1
 69 0 l 1
 20 52 l 1
 250 256 l 1
 93 458 l 1
 153 504 l 1
 307 306 l 1
 531 504 l 1
 580 452 l 1
 351 249 l 1
 509 46 l 1
 449 0 l 1
EndSplineSet
Validated: 1
EndChar

StartChar: Oslash
Encoding: 216 216 149
Width: 811
Flags: HW
LayerCount: 2
Fore
SplineSet
92 -20 m 1
 1 -20 l 1
 124 103 l 1
 82 161 61 228.333333333 61 305 c 0
 61 418.333333333 98.5 515.833333333 173.5 597.5 c 128
 248.5 679.166666667 343.666666667 720 459 720 c 0
 545.666666667 720 619 694.666666667 679 644 c 1
 755 720 l 1
 845 720 l 1
 722 596 l 1
 764.666666667 540 786 473 786 395 c 0
 786 321 769.5 252.5 736.5 189.5 c 128
 703.5 126.5 656.166666667 75.8333333333 594.5 37.5 c 128
 532.833333333 -0.833333333333 463.666666667 -20 387 -20 c 0
 301 -20 228 5.33333333333 168 56 c 1
 92 -20 l 1
159 311 m 0
 159 258.333333333 171.666666667 211.666666667 197 171 c 1
 608 578 l 1
 566.666666667 614 516.333333333 632 457 632 c 0
 371 632 299.833333333 600.833333333 243.5 538.5 c 128
 187.166666667 476.166666667 159 400.333333333 159 311 c 0
389 68 m 0
 475 68 546.333333333 99.1666666667 603 161.5 c 128
 659.666666667 223.833333333 688 299.666666667 688 389 c 0
 688 441 675 487.666666667 649 529 c 1
 239 122 l 1
 279 86 329 68 389 68 c 0
EndSplineSet
Validated: 524289
EndChar

StartChar: Ugrave
Encoding: 217 217 150
Width: 704
Flags: HW
LayerCount: 2
Fore
SplineSet
403 760 m 1
 303 895 l 1
 401 895 l 1
 487 760 l 1
 403 760 l 1
523 258 m 2
 601 700 l 1
 695 700 l 1
 617 256 l 2
 584.333333333 72 486.666666667 -20 324 -20 c 0
 240 -20 176 5.66666666667 132 57 c 128
 88 108.333333333 74.3333333333 180.333333333 91 273 c 2
 167 700 l 1
 261 700 l 1
 185 268 l 2
 173.666666667 203.333333333 180.833333333 153.833333333 206.5 119.5 c 128
 232.166666667 85.1666666667 273.333333333 68 330 68 c 0
 436 68 500.333333333 131.333333333 523 258 c 2
EndSplineSet
Validated: 524321
EndChar

StartChar: Uacute
Encoding: 218 218 151
Width: 704
Flags: HW
LayerCount: 2
Fore
SplineSet
488 760 m 1
 398 760 l 1
 531 895 l 1
 636 895 l 1
 488 760 l 1
523 258 m 2
 601 700 l 1
 695 700 l 1
 617 256 l 2
 584.333333333 72 486.666666667 -20 324 -20 c 0
 240 -20 176 5.66666666667 132 57 c 128
 88 108.333333333 74.3333333333 180.333333333 91 273 c 2
 167 700 l 1
 261 700 l 1
 185 268 l 2
 173.666666667 203.333333333 180.833333333 153.833333333 206.5 119.5 c 128
 232.166666667 85.1666666667 273.333333333 68 330 68 c 0
 436 68 500.333333333 131.333333333 523 258 c 2
EndSplineSet
Validated: 524321
EndChar

StartChar: Ucircumflex
Encoding: 219 219 152
Width: 704
Flags: HW
LayerCount: 2
Fore
SplineSet
362 760 m 1
 281 760 l 1
 414 895 l 1
 518 895 l 1
 603 760 l 1
 531 760 l 1
 463 852 l 1
 362 760 l 1
523 258 m 2
 601 700 l 1
 695 700 l 1
 617 256 l 2
 584.333333333 72 486.666666667 -20 324 -20 c 0
 240 -20 176 5.66666666667 132 57 c 128
 88 108.333333333 74.3333333333 180.333333333 91 273 c 2
 167 700 l 1
 261 700 l 1
 185 268 l 2
 173.666666667 203.333333333 180.833333333 153.833333333 206.5 119.5 c 128
 232.166666667 85.1666666667 273.333333333 68 330 68 c 0
 436 68 500.333333333 131.333333333 523 258 c 2
EndSplineSet
Validated: 524321
EndChar

StartChar: Udieresis
Encoding: 220 220 153
Width: 704
Flags: HW
LayerCount: 2
Fore
SplineSet
361 789 m 0
 345.666666667 789 332.833333333 794.166666667 322.5 804.5 c 128
 312.166666667 814.833333333 307 827.333333333 307 842 c 128
 307 856.666666667 312.333333333 869.166666667 323 879.5 c 128
 333.666666667 889.833333333 346.333333333 895 361 895 c 128
 375.666666667 895 388.333333333 889.833333333 399 879.5 c 128
 409.666666667 869.166666667 415 856.666666667 415 842 c 128
 415 827.333333333 409.666666667 814.833333333 399 804.5 c 128
 388.333333333 794.166666667 375.666666667 789 361 789 c 0
552 789 m 0
 536.666666667 789 523.666666667 794.166666667 513 804.5 c 128
 502.333333333 814.833333333 497 827.333333333 497 842 c 128
 497 856.666666667 502.333333333 869.166666667 513 879.5 c 128
 523.666666667 889.833333333 536.666666667 895 552 895 c 0
 566.666666667 895 579.333333333 889.833333333 590 879.5 c 128
 600.666666667 869.166666667 606 856.666666667 606 842 c 128
 606 827.333333333 600.666666667 814.833333333 590 804.5 c 128
 579.333333333 794.166666667 566.666666667 789 552 789 c 0
523 258 m 2
 601 700 l 1
 695 700 l 1
 617 256 l 2
 584.333333333 72 486.666666667 -20 324 -20 c 0
 240 -20 176 5.66666666667 132 57 c 128
 88 108.333333333 74.3333333333 180.333333333 91 273 c 2
 167 700 l 1
 261 700 l 1
 185 268 l 2
 173.666666667 203.333333333 180.833333333 153.833333333 206.5 119.5 c 128
 232.166666667 85.1666666667 273.333333333 68 330 68 c 0
 436 68 500.333333333 131.333333333 523 258 c 2
EndSplineSet
Validated: 524321
EndChar

StartChar: Yacute
Encoding: 221 221 154
Width: 658
Flags: HW
LayerCount: 2
Fore
SplineSet
457 760 m 1
 367 760 l 1
 500 895 l 1
 605 895 l 1
 457 760 l 1
731 700 m 1
 386 313 l 1
 331 0 l 1
 237 0 l 1
 293 318 l 1
 86 700 l 1
 192 700 l 1
 352 404 l 1
 614 700 l 1
 731 700 l 1
EndSplineSet
Validated: 1
EndChar

StartChar: Thorn
Encoding: 222 222 155
Width: 559
Flags: HW
LayerCount: 2
Fore
SplineSet
63 0 m 1
 187 700 l 1
 281 700 l 1
 255 554 l 1
 341 554 l 2
 405.666666667 554 456.833333333 538.333333333 494.5 507 c 128
 532.166666667 475.666666667 551 431.666666667 551 375 c 0
 551 313 528.833333333 261.833333333 484.5 221.5 c 128
 440.166666667 181.166666667 380 161 304 161 c 2
 186 161 l 1
 157 0 l 1
 63 0 l 1
336 474 m 2
 241 474 l 1
 200 241 l 1
 302 241 l 2
 348.666666667 241 385.333333333 252.833333333 412 276.5 c 128
 438.666666667 300.166666667 452 331.666666667 452 371 c 0
 452 404.333333333 441.833333333 429.833333333 421.5 447.5 c 128
 401.166666667 465.166666667 372.666666667 474 336 474 c 2
EndSplineSet
Validated: 524289
EndChar

StartChar: germandbls
Encoding: 223 223 156
Width: 566
Flags: HW
LayerCount: 2
Fore
SplineSet
270 -4 m 0
 244 -4 221 -0.666666666667 201 6 c 1
 215 84 l 1
 233.666666667 78.6666666667 250.666666667 76 266 76 c 0
 317.333333333 76 357 88.6666666667 385 114 c 128
 413 139.333333333 427 174 427 218 c 0
 427 254 416 283.666666667 394 307 c 128
 372 330.333333333 342.666666667 342 306 342 c 2
 267 342 l 1
 281 422 l 1
 320 422 l 2
 362 422 396.5 434.333333333 423.5 459 c 128
 450.5 483.666666667 464 516.333333333 464 557 c 0
 464 591 454.666666667 618.333333333 436 639 c 128
 417.333333333 659.666666667 390 670 354 670 c 0
 318.666666667 670 290 659.666666667 268 639 c 128
 246 618.333333333 231.666666667 589.666666667 225 553 c 2
 128 0 l 1
 42 0 l 1
 140 555 l 2
 150.666666667 614.333333333 174.166666667 661.666666667 210.5 697 c 128
 246.833333333 732.333333333 296 750 358 750 c 0
 419.333333333 750 467.333333333 732.833333333 502 698.5 c 128
 536.666666667 664.166666667 554 619 554 563 c 0
 554 519 540.333333333 480.166666667 513 446.5 c 128
 485.666666667 412.833333333 450.333333333 391 407 381 c 1
 441 369 467.666666667 348 487 318 c 128
 506.333333333 288 516 255 516 219 c 0
 516 149.666666667 492.666666667 95.1666666667 446 55.5 c 128
 399.333333333 15.8333333333 340.666666667 -4 270 -4 c 0
EndSplineSet
Validated: 524289
EndChar

StartChar: agrave
Encoding: 224 224 157
Width: 545
Flags: HW
LayerCount: 2
Fore
SplineSet
292 584 m 1
 207 750 l 1
 299 750 l 1
 371 584 l 1
 292 584 l 1
187 -14 m 0
 140.333333333 -14 103 -2.66666666667 75 20 c 128
 47 42.6666666667 33 74.3333333333 33 115 c 0
 33 156.333333333 47.8333333333 190.833333333 77.5 218.5 c 128
 107.166666667 246.166666667 151.666666667 265 211 275 c 2
 392 305 l 1
 397 334 l 2
 403 369.333333333 397.166666667 397.166666667 379.5 417.5 c 128
 361.833333333 437.833333333 335 448 299 448 c 0
 245.666666667 448 198 424.333333333 156 377 c 1
 95 428 l 1
 119 456.666666667 149.166666667 479.833333333 185.5 497.5 c 128
 221.833333333 515.166666667 261.333333333 524 304 524 c 0
 370.666666667 524 419.333333333 505.333333333 450 468 c 128
 480.666666667 430.666666667 490.333333333 380.666666667 479 318 c 2
 422 0 l 1
 338 0 l 1
 348 55 l 1
 306 9 252.333333333 -14 187 -14 c 0
121 124 m 0
 121 103.333333333 128.333333333 86.8333333333 143 74.5 c 128
 157.666666667 62.1666666667 178.666666667 56 206 56 c 0
 269.333333333 56 321.333333333 83.3333333333 362 138 c 1
 381 241 l 1
 229 215 l 2
 157 203 121 172.666666667 121 124 c 0
EndSplineSet
Validated: 524321
EndChar

StartChar: aacute
Encoding: 225 225 158
Width: 545
Flags: HW
LayerCount: 2
Fore
SplineSet
373 584 m 1
 287 584 l 1
 418 750 l 1
 517 750 l 1
 373 584 l 1
187 -14 m 0
 140.333333333 -14 103 -2.66666666667 75 20 c 128
 47 42.6666666667 33 74.3333333333 33 115 c 0
 33 156.333333333 47.8333333333 190.833333333 77.5 218.5 c 128
 107.166666667 246.166666667 151.666666667 265 211 275 c 2
 392 305 l 1
 397 334 l 2
 403 369.333333333 397.166666667 397.166666667 379.5 417.5 c 128
 361.833333333 437.833333333 335 448 299 448 c 0
 245.666666667 448 198 424.333333333 156 377 c 1
 95 428 l 1
 119 456.666666667 149.166666667 479.833333333 185.5 497.5 c 128
 221.833333333 515.166666667 261.333333333 524 304 524 c 0
 370.666666667 524 419.333333333 505.333333333 450 468 c 128
 480.666666667 430.666666667 490.333333333 380.666666667 479 318 c 2
 422 0 l 1
 338 0 l 1
 348 55 l 1
 306 9 252.333333333 -14 187 -14 c 0
121 124 m 0
 121 103.333333333 128.333333333 86.8333333333 143 74.5 c 128
 157.666666667 62.1666666667 178.666666667 56 206 56 c 0
 269.333333333 56 321.333333333 83.3333333333 362 138 c 1
 381 241 l 1
 229 215 l 2
 157 203 121 172.666666667 121 124 c 0
EndSplineSet
Validated: 524321
EndChar

StartChar: acircumflex
Encoding: 226 226 159
Width: 545
Flags: HW
LayerCount: 2
Fore
SplineSet
252 584 m 1
 171 584 l 1
 302 750 l 1
 416 750 l 1
 488 584 l 1
 415 584 l 1
 355 708 l 1
 252 584 l 1
187 -14 m 0
 140.333333333 -14 103 -2.66666666667 75 20 c 128
 47 42.6666666667 33 74.3333333333 33 115 c 0
 33 156.333333333 47.8333333333 190.833333333 77.5 218.5 c 128
 107.166666667 246.166666667 151.666666667 265 211 275 c 2
 392 305 l 1
 397 334 l 2
 403 369.333333333 397.166666667 397.166666667 379.5 417.5 c 128
 361.833333333 437.833333333 335 448 299 448 c 0
 245.666666667 448 198 424.333333333 156 377 c 1
 95 428 l 1
 119 456.666666667 149.166666667 479.833333333 185.5 497.5 c 128
 221.833333333 515.166666667 261.333333333 524 304 524 c 0
 370.666666667 524 419.333333333 505.333333333 450 468 c 128
 480.666666667 430.666666667 490.333333333 380.666666667 479 318 c 2
 422 0 l 1
 338 0 l 1
 348 55 l 1
 306 9 252.333333333 -14 187 -14 c 0
121 124 m 0
 121 103.333333333 128.333333333 86.8333333333 143 74.5 c 128
 157.666666667 62.1666666667 178.666666667 56 206 56 c 0
 269.333333333 56 321.333333333 83.3333333333 362 138 c 1
 381 241 l 1
 229 215 l 2
 157 203 121 172.666666667 121 124 c 0
EndSplineSet
Validated: 524321
EndChar

StartChar: atilde
Encoding: 227 227 160
Width: 545
Flags: HW
LayerCount: 2
Fore
SplineSet
223 596 m 1
 160 596 l 1
 166 637 l 2
 171.333333333 671 182.666666667 697.5 200 716.5 c 128
 217.333333333 735.5 239.666666667 745 267 745 c 0
 285.666666667 745 303.166666667 740.166666667 319.5 730.5 c 128
 335.833333333 720.833333333 348.833333333 710.333333333 358.5 699 c 128
 368.166666667 687.666666667 378.666666667 677.166666667 390 667.5 c 128
 401.333333333 657.833333333 411.666666667 653 421 653 c 0
 444.333333333 653 458.333333333 666.666666667 463 694 c 2
 469 738 l 1
 532 738 l 1
 526 696 l 2
 520.666666667 662.666666667 509.166666667 636.5 491.5 617.5 c 128
 473.833333333 598.5 451.666666667 589 425 589 c 0
 406.333333333 589 388.666666667 593.833333333 372 603.5 c 128
 355.333333333 613.166666667 342.166666667 623.666666667 332.5 635 c 128
 322.833333333 646.333333333 312.333333333 656.833333333 301 666.5 c 128
 289.666666667 676.166666667 279 681 269 681 c 0
 247.666666667 681 234.666666667 667.333333333 230 640 c 2
 223 596 l 1
187 -14 m 0
 140.333333333 -14 103 -2.66666666667 75 20 c 128
 47 42.6666666667 33 74.3333333333 33 115 c 0
 33 156.333333333 47.8333333333 190.833333333 77.5 218.5 c 128
 107.166666667 246.166666667 151.666666667 265 211 275 c 2
 392 305 l 1
 397 334 l 2
 403 369.333333333 397.166666667 397.166666667 379.5 417.5 c 128
 361.833333333 437.833333333 335 448 299 448 c 0
 245.666666667 448 198 424.333333333 156 377 c 1
 95 428 l 1
 119 456.666666667 149.166666667 479.833333333 185.5 497.5 c 128
 221.833333333 515.166666667 261.333333333 524 304 524 c 0
 370.666666667 524 419.333333333 505.333333333 450 468 c 128
 480.666666667 430.666666667 490.333333333 380.666666667 479 318 c 2
 422 0 l 1
 338 0 l 1
 348 55 l 1
 306 9 252.333333333 -14 187 -14 c 0
121 124 m 0
 121 103.333333333 128.333333333 86.8333333333 143 74.5 c 128
 157.666666667 62.1666666667 178.666666667 56 206 56 c 0
 269.333333333 56 321.333333333 83.3333333333 362 138 c 1
 381 241 l 1
 229 215 l 2
 157 203 121 172.666666667 121 124 c 0
EndSplineSet
Validated: 524321
EndChar

StartChar: adieresis
Encoding: 228 228 161
Width: 545
Flags: HW
LayerCount: 2
Fore
SplineSet
256 642 m 128
 240.666666667 642 227.333333333 647.5 216 658.5 c 128
 204.666666667 669.5 199 682.666666667 199 698 c 128
 199 713.333333333 204.666666667 726.5 216 737.5 c 128
 227.333333333 748.5 240.666666667 754 256 754 c 128
 271.333333333 754 284.666666667 748.5 296 737.5 c 128
 307.333333333 726.5 313 713.333333333 313 698 c 128
 313 682.666666667 307.333333333 669.5 296 658.5 c 128
 284.666666667 647.5 271.333333333 642 256 642 c 128
448 642 m 128
 432.666666667 642 419.333333333 647.5 408 658.5 c 128
 396.666666667 669.5 391 682.666666667 391 698 c 128
 391 713.333333333 396.666666667 726.5 408 737.5 c 128
 419.333333333 748.5 432.666666667 754 448 754 c 128
 463.333333333 754 476.666666667 748.5 488 737.5 c 128
 499.333333333 726.5 505 713.333333333 505 698 c 128
 505 682.666666667 499.333333333 669.5 488 658.5 c 128
 476.666666667 647.5 463.333333333 642 448 642 c 128
187 -14 m 0
 140.333333333 -14 103 -2.66666666667 75 20 c 128
 47 42.6666666667 33 74.3333333333 33 115 c 0
 33 156.333333333 47.8333333333 190.833333333 77.5 218.5 c 128
 107.166666667 246.166666667 151.666666667 265 211 275 c 2
 392 305 l 1
 397 334 l 2
 403 369.333333333 397.166666667 397.166666667 379.5 417.5 c 128
 361.833333333 437.833333333 335 448 299 448 c 0
 245.666666667 448 198 424.333333333 156 377 c 1
 95 428 l 1
 119 456.666666667 149.166666667 479.833333333 185.5 497.5 c 128
 221.833333333 515.166666667 261.333333333 524 304 524 c 0
 370.666666667 524 419.333333333 505.333333333 450 468 c 128
 480.666666667 430.666666667 490.333333333 380.666666667 479 318 c 2
 422 0 l 1
 338 0 l 1
 348 55 l 1
 306 9 252.333333333 -14 187 -14 c 0
121 124 m 0
 121 103.333333333 128.333333333 86.8333333333 143 74.5 c 128
 157.666666667 62.1666666667 178.666666667 56 206 56 c 0
 269.333333333 56 321.333333333 83.3333333333 362 138 c 1
 381 241 l 1
 229 215 l 2
 157 203 121 172.666666667 121 124 c 0
EndSplineSet
Validated: 524321
EndChar

StartChar: aring
Encoding: 229 229 162
Width: 545
Flags: HW
LayerCount: 2
Fore
SplineSet
338 556 m 0
 306.666666667 556 280 566 258 586 c 128
 236 606 225 631.333333333 225 662 c 0
 225 700 237.666666667 731.166666667 263 755.5 c 128
 288.333333333 779.833333333 319.666666667 792 357 792 c 0
 388.333333333 792 415 782 437 762 c 128
 459 742 470 716.333333333 470 685 c 0
 470 647 457.333333333 616 432 592 c 128
 406.666666667 568 375.333333333 556 338 556 c 0
342 607 m 0
 363.333333333 607 380.5 614.166666667 393.5 628.5 c 128
 406.5 642.833333333 413 660.333333333 413 681 c 0
 413 699 407.5 713.5 396.5 724.5 c 128
 385.5 735.5 371 741 353 741 c 0
 332.333333333 741 315.5 733.666666667 302.5 719 c 128
 289.5 704.333333333 283 686.666666667 283 666 c 0
 283 648.666666667 288.333333333 634.5 299 623.5 c 128
 309.666666667 612.5 324 607 342 607 c 0
187 -14 m 0
 140.333333333 -14 103 -2.66666666667 75 20 c 128
 47 42.6666666667 33 74.3333333333 33 115 c 0
 33 156.333333333 47.8333333333 190.833333333 77.5 218.5 c 128
 107.166666667 246.166666667 151.666666667 265 211 275 c 2
 392 305 l 1
 397 334 l 2
 403 369.333333333 397.166666667 397.166666667 379.5 417.5 c 128
 361.833333333 437.833333333 335 448 299 448 c 0
 245.666666667 448 198 424.333333333 156 377 c 1
 95 428 l 1
 119 456.666666667 149.166666667 479.833333333 185.5 497.5 c 128
 221.833333333 515.166666667 261.333333333 524 304 524 c 0
 370.666666667 524 419.333333333 505.333333333 450 468 c 128
 480.666666667 430.666666667 490.333333333 380.666666667 479 318 c 2
 422 0 l 1
 338 0 l 1
 348 55 l 1
 306 9 252.333333333 -14 187 -14 c 0
121 124 m 0
 121 103.333333333 128.333333333 86.8333333333 143 74.5 c 128
 157.666666667 62.1666666667 178.666666667 56 206 56 c 0
 269.333333333 56 321.333333333 83.3333333333 362 138 c 1
 381 241 l 1
 229 215 l 2
 157 203 121 172.666666667 121 124 c 0
EndSplineSet
Validated: 524321
EndChar

StartChar: ae
Encoding: 230 230 163
Width: 902
Flags: HW
LayerCount: 2
Fore
SplineSet
192 -14 m 0
 145.333333333 -14 107.333333333 -2.33333333333 78 21 c 128
 48.6666666667 44.3333333333 34 77 34 119 c 0
 34 159 49 192.5 79 219.5 c 128
 109 246.5 153.333333333 265 212 275 c 2
 393 306 l 1
 398 334 l 2
 404.666666667 369.333333333 399 397.166666667 381 417.5 c 128
 363 437.833333333 336 448 300 448 c 0
 247.333333333 448 200 424.333333333 158 377 c 1
 96 428 l 1
 120 456.666666667 150.166666667 479.833333333 186.5 497.5 c 128
 222.833333333 515.166666667 262.333333333 524 305 524 c 0
 386.333333333 524 440.333333333 495.666666667 467 439 c 1
 520.333333333 495.666666667 587.666666667 524 669 524 c 0
 727.666666667 524 775.5 506.333333333 812.5 471 c 128
 849.5 435.666666667 868 390.666666667 868 336 c 0
 868 307.333333333 863 279 853 251 c 1
 472 251 l 1
 470.666666667 237.666666667 470 227.333333333 470 220 c 0
 470 170 483.5 130.333333333 510.5 101 c 128
 537.5 71.6666666667 576 57 626 57 c 0
 695.333333333 57 750.333333333 83 791 135 c 1
 848 80 l 1
 793.333333333 13.3333333333 717.666666667 -20 621 -20 c 0
 525 -20 456 17.3333333333 414 92 c 1
 355.333333333 21.3333333333 281.333333333 -14 192 -14 c 0
665 453 m 0
 623 453 586.5 440.5 555.5 415.5 c 128
 524.5 390.5 501.666666667 357.666666667 487 317 c 1
 783 316 l 1
 788.333333333 352.666666667 780.666666667 384.666666667 760 412 c 128
 739.333333333 439.333333333 707.666666667 453 665 453 c 0
122 125 m 0
 122 104.333333333 129.5 87.6666666667 144.5 75 c 128
 159.5 62.3333333333 180.333333333 56 207 56 c 0
 275 56 335.666666667 91.3333333333 389 162 c 1
 385 181.333333333 383 201 383 221 c 0
 383 230.333333333 383.333333333 237 384 241 c 1
 230 215 l 2
 158 203 122 173 122 125 c 0
EndSplineSet
Validated: 524321
EndChar

StartChar: ccedilla
Encoding: 231 231 164
Width: 542
Flags: HW
LayerCount: 2
Fore
SplineSet
339 524 m 0
 385.666666667 524 426.833333333 514.333333333 462.5 495 c 128
 498.166666667 475.666666667 524.666666667 450 542 418 c 1
 470 363 l 1
 442 417 396 444 332 444 c 0
 274 444 225.833333333 421.833333333 187.5 377.5 c 128
 149.166666667 333.166666667 130 280.666666667 130 220 c 0
 130 174 144.166666667 135.833333333 172.5 105.5 c 128
 200.833333333 75.1666666667 238.666666667 60 286 60 c 0
 346 60 395 84 433 132 c 1
 491 74 l 1
 447 20.6666666667 389.333333333 -10 318 -18 c 1
 206 -160 l 1
 117 -160 l 1
 231 -15 l 1
 171 -5 124.166666667 21.6666666667 90.5 65 c 128
 56.8333333333 108.333333333 40 160.333333333 40 221 c 0
 40 304.333333333 68.5 375.666666667 125.5 435 c 128
 182.5 494.333333333 253.666666667 524 339 524 c 0
EndSplineSet
Validated: 524289
EndChar

StartChar: egrave
Encoding: 232 232 165
Width: 563
Flags: HW
LayerCount: 2
Fore
SplineSet
303 584 m 1
 218 750 l 1
 310 750 l 1
 382 584 l 1
 303 584 l 1
280 -20 m 0
 204.666666667 -20 146 2.66666666667 104 48 c 128
 62 93.3333333333 41 151 41 221 c 0
 41 305.666666667 66.1666666667 377.333333333 116.5 436 c 128
 166.833333333 494.666666667 234.666666667 524 320 524 c 0
 380 524 429.666666667 506.166666667 469 470.5 c 128
 508.333333333 434.833333333 528 390 528 336 c 0
 528 306 522.666666667 277.666666667 512 251 c 1
 130 251 l 1
 129.333333333 244.333333333 129 234 129 220 c 0
 129 170 142.666666667 130.333333333 170 101 c 128
 197.333333333 71.6666666667 235.666666667 57 285 57 c 0
 355 57 410 83 450 135 c 1
 507 80 l 1
 452.333333333 13.3333333333 376.666666667 -20 280 -20 c 0
318 453 m 0
 274 453 237.166666667 440.666666667 207.5 416 c 128
 177.833333333 391.333333333 156.333333333 358 143 316 c 1
 442 316 l 1
 447.333333333 352 438.666666667 383.833333333 416 411.5 c 128
 393.333333333 439.166666667 360.666666667 453 318 453 c 0
EndSplineSet
Validated: 524321
EndChar

StartChar: eacute
Encoding: 233 233 166
Width: 563
Flags: HW
LayerCount: 2
Fore
SplineSet
384 584 m 1
 298 584 l 1
 429 750 l 1
 528 750 l 1
 384 584 l 1
280 -20 m 0
 204.666666667 -20 146 2.66666666667 104 48 c 128
 62 93.3333333333 41 151 41 221 c 0
 41 305.666666667 66.1666666667 377.333333333 116.5 436 c 128
 166.833333333 494.666666667 234.666666667 524 320 524 c 0
 380 524 429.666666667 506.166666667 469 470.5 c 128
 508.333333333 434.833333333 528 390 528 336 c 0
 528 306 522.666666667 277.666666667 512 251 c 1
 130 251 l 1
 129.333333333 244.333333333 129 234 129 220 c 0
 129 170 142.666666667 130.333333333 170 101 c 128
 197.333333333 71.6666666667 235.666666667 57 285 57 c 0
 355 57 410 83 450 135 c 1
 507 80 l 1
 452.333333333 13.3333333333 376.666666667 -20 280 -20 c 0
318 453 m 0
 274 453 237.166666667 440.666666667 207.5 416 c 128
 177.833333333 391.333333333 156.333333333 358 143 316 c 1
 442 316 l 1
 447.333333333 352 438.666666667 383.833333333 416 411.5 c 128
 393.333333333 439.166666667 360.666666667 453 318 453 c 0
EndSplineSet
Validated: 524321
EndChar

StartChar: ecircumflex
Encoding: 234 234 167
Width: 563
Flags: HW
LayerCount: 2
Fore
SplineSet
263 584 m 1
 182 584 l 1
 313 750 l 1
 427 750 l 1
 499 584 l 1
 426 584 l 1
 366 708 l 1
 263 584 l 1
280 -20 m 0
 204.666666667 -20 146 2.66666666667 104 48 c 128
 62 93.3333333333 41 151 41 221 c 0
 41 305.666666667 66.1666666667 377.333333333 116.5 436 c 128
 166.833333333 494.666666667 234.666666667 524 320 524 c 0
 380 524 429.666666667 506.166666667 469 470.5 c 128
 508.333333333 434.833333333 528 390 528 336 c 0
 528 306 522.666666667 277.666666667 512 251 c 1
 130 251 l 1
 129.333333333 244.333333333 129 234 129 220 c 0
 129 170 142.666666667 130.333333333 170 101 c 128
 197.333333333 71.6666666667 235.666666667 57 285 57 c 0
 355 57 410 83 450 135 c 1
 507 80 l 1
 452.333333333 13.3333333333 376.666666667 -20 280 -20 c 0
318 453 m 0
 274 453 237.166666667 440.666666667 207.5 416 c 128
 177.833333333 391.333333333 156.333333333 358 143 316 c 1
 442 316 l 1
 447.333333333 352 438.666666667 383.833333333 416 411.5 c 128
 393.333333333 439.166666667 360.666666667 453 318 453 c 0
EndSplineSet
Validated: 524321
EndChar

StartChar: edieresis
Encoding: 235 235 168
Width: 563
Flags: HW
LayerCount: 2
Fore
SplineSet
267 642 m 128
 251.666666667 642 238.333333333 647.5 227 658.5 c 128
 215.666666667 669.5 210 682.666666667 210 698 c 128
 210 713.333333333 215.666666667 726.5 227 737.5 c 128
 238.333333333 748.5 251.666666667 754 267 754 c 128
 282.333333333 754 295.666666667 748.5 307 737.5 c 128
 318.333333333 726.5 324 713.333333333 324 698 c 128
 324 682.666666667 318.333333333 669.5 307 658.5 c 128
 295.666666667 647.5 282.333333333 642 267 642 c 128
459 642 m 128
 443.666666667 642 430.333333333 647.5 419 658.5 c 128
 407.666666667 669.5 402 682.666666667 402 698 c 128
 402 713.333333333 407.666666667 726.5 419 737.5 c 128
 430.333333333 748.5 443.666666667 754 459 754 c 128
 474.333333333 754 487.666666667 748.5 499 737.5 c 128
 510.333333333 726.5 516 713.333333333 516 698 c 128
 516 682.666666667 510.333333333 669.5 499 658.5 c 128
 487.666666667 647.5 474.333333333 642 459 642 c 128
280 -20 m 0
 204.666666667 -20 146 2.66666666667 104 48 c 128
 62 93.3333333333 41 151 41 221 c 0
 41 305.666666667 66.1666666667 377.333333333 116.5 436 c 128
 166.833333333 494.666666667 234.666666667 524 320 524 c 0
 380 524 429.666666667 506.166666667 469 470.5 c 128
 508.333333333 434.833333333 528 390 528 336 c 0
 528 306 522.666666667 277.666666667 512 251 c 1
 130 251 l 1
 129.333333333 244.333333333 129 234 129 220 c 0
 129 170 142.666666667 130.333333333 170 101 c 128
 197.333333333 71.6666666667 235.666666667 57 285 57 c 0
 355 57 410 83 450 135 c 1
 507 80 l 1
 452.333333333 13.3333333333 376.666666667 -20 280 -20 c 0
318 453 m 0
 274 453 237.166666667 440.666666667 207.5 416 c 128
 177.833333333 391.333333333 156.333333333 358 143 316 c 1
 442 316 l 1
 447.333333333 352 438.666666667 383.833333333 416 411.5 c 128
 393.333333333 439.166666667 360.666666667 453 318 453 c 0
EndSplineSet
Validated: 524321
EndChar

StartChar: igrave
Encoding: 236 236 169
Width: 258
Flags: HW
LayerCount: 2
Fore
SplineSet
148 584 m 1
 63 750 l 1
 155 750 l 1
 227 584 l 1
 148 584 l 1
42 0 m 1
 131 504 l 1
 216 504 l 1
 127 0 l 1
 42 0 l 1
EndSplineSet
Validated: 1
EndChar

StartChar: iacute
Encoding: 237 237 170
Width: 258
Flags: HW
LayerCount: 2
Fore
SplineSet
229 584 m 1
 143 584 l 1
 274 750 l 1
 373 750 l 1
 229 584 l 1
42 0 m 1
 131 504 l 1
 216 504 l 1
 127 0 l 1
 42 0 l 1
EndSplineSet
Validated: 1
EndChar

StartChar: icircumflex
Encoding: 238 238 171
Width: 258
Flags: HW
LayerCount: 2
Fore
SplineSet
108 584 m 1
 27 584 l 1
 158 750 l 1
 272 750 l 1
 344 584 l 1
 271 584 l 1
 211 708 l 1
 108 584 l 1
42 0 m 1
 131 504 l 1
 216 504 l 1
 127 0 l 1
 42 0 l 1
EndSplineSet
Validated: 1
EndChar

StartChar: idieresis
Encoding: 239 239 172
Width: 258
Flags: HW
LayerCount: 2
Fore
SplineSet
112 642 m 128
 96.6666666667 642 83.3333333333 647.5 72 658.5 c 128
 60.6666666667 669.5 55 682.666666667 55 698 c 128
 55 713.333333333 60.6666666667 726.5 72 737.5 c 128
 83.3333333333 748.5 96.6666666667 754 112 754 c 128
 127.333333333 754 140.666666667 748.5 152 737.5 c 128
 163.333333333 726.5 169 713.333333333 169 698 c 128
 169 682.666666667 163.333333333 669.5 152 658.5 c 128
 140.666666667 647.5 127.333333333 642 112 642 c 128
304 642 m 128
 288.666666667 642 275.333333333 647.5 264 658.5 c 128
 252.666666667 669.5 247 682.666666667 247 698 c 128
 247 713.333333333 252.666666667 726.5 264 737.5 c 128
 275.333333333 748.5 288.666666667 754 304 754 c 128
 319.333333333 754 332.666666667 748.5 344 737.5 c 128
 355.333333333 726.5 361 713.333333333 361 698 c 128
 361 682.666666667 355.333333333 669.5 344 658.5 c 128
 332.666666667 647.5 319.333333333 642 304 642 c 128
42 0 m 1
 131 504 l 1
 216 504 l 1
 127 0 l 1
 42 0 l 1
EndSplineSet
Validated: 524289
EndChar

StartChar: eth
Encoding: 240 240 173
Width: 613
Flags: HW
LayerCount: 2
Fore
SplineSet
196 559 m 1
 208 628 l 1
 331 666 l 1
 295.666666667 696 256.666666667 724 214 750 c 1
 331 750 l 1
 361.666666667 731.333333333 389 711.666666667 413 691 c 1
 604 749 l 1
 592 680 l 1
 463 641 l 1
 540.333333333 551.666666667 579 443 579 315 c 0
 579 215 551.666666667 134.166666667 497 72.5 c 128
 442.333333333 10.8333333333 374 -20 292 -20 c 0
 214.666666667 -20 153.333333333 2.66666666667 108 48 c 128
 62.6666666667 93.3333333333 40 153 40 227 c 0
 40 307 65.8333333333 375.166666667 117.5 431.5 c 128
 169.166666667 487.833333333 236.333333333 516 319 516 c 0
 383 516 435 494.333333333 475 451 c 1
 458.333333333 510.333333333 427.333333333 565.333333333 382 616 c 1
 196 559 l 1
131 227 m 0
 131 176.333333333 145.833333333 135.833333333 175.5 105.5 c 128
 205.166666667 75.1666666667 244.333333333 60 293 60 c 0
 351 60 398.666666667 84.3333333333 436 133 c 128
 473.333333333 181.666666667 492 244.666666667 492 322 c 2
 492 333 l 1
 476.666666667 361.666666667 454.333333333 385.833333333 425 405.5 c 128
 395.666666667 425.166666667 362 435 324 435 c 0
 264.666666667 435 217.666666667 415.166666667 183 375.5 c 128
 148.333333333 335.833333333 131 286.333333333 131 227 c 0
EndSplineSet
Validated: 524289
EndChar

StartChar: ntilde
Encoding: 241 241 174
Width: 602
Flags: HW
LayerCount: 2
Fore
SplineSet
251 596 m 1
 188 596 l 1
 194 637 l 2
 199.333333333 671 210.666666667 697.5 228 716.5 c 128
 245.333333333 735.5 267.666666667 745 295 745 c 0
 313.666666667 745 331.166666667 740.166666667 347.5 730.5 c 128
 363.833333333 720.833333333 376.833333333 710.333333333 386.5 699 c 128
 396.166666667 687.666666667 406.666666667 677.166666667 418 667.5 c 128
 429.333333333 657.833333333 439.666666667 653 449 653 c 0
 472.333333333 653 486.333333333 666.666666667 491 694 c 2
 497 738 l 1
 560 738 l 1
 554 696 l 2
 548.666666667 662.666666667 537.166666667 636.5 519.5 617.5 c 128
 501.833333333 598.5 479.666666667 589 453 589 c 0
 434.333333333 589 416.666666667 593.833333333 400 603.5 c 128
 383.333333333 613.166666667 370.166666667 623.666666667 360.5 635 c 128
 350.833333333 646.333333333 340.333333333 656.833333333 329 666.5 c 128
 317.666666667 676.166666667 307 681 297 681 c 0
 275.666666667 681 262.666666667 667.333333333 258 640 c 2
 251 596 l 1
42 0 m 1
 131 504 l 1
 216 504 l 1
 207 451 l 1
 255.666666667 499.666666667 310.666666667 524 372 524 c 0
 432 524 477 504.833333333 507 466.5 c 128
 537 428.166666667 546 374.333333333 534 305 c 2
 480 0 l 1
 395 0 l 1
 449 302 l 2
 457 346.666666667 451.666666667 381.5 433 406.5 c 128
 414.333333333 431.5 385.666666667 444 347 444 c 0
 283.666666667 444 231 412.333333333 189 349 c 1
 127 0 l 1
 42 0 l 1
EndSplineSet
Validated: 524321
EndChar

StartChar: ograve
Encoding: 242 242 175
Width: 619
Flags: HW
LayerCount: 2
Fore
SplineSet
329 584 m 1
 244 750 l 1
 336 750 l 1
 408 584 l 1
 329 584 l 1
339 524 m 0
 413 524 471.666666667 501.166666667 515 455.5 c 128
 558.333333333 409.833333333 580 352.333333333 580 283 c 0
 580 201 552.166666667 130 496.5 70 c 128
 440.833333333 10 369.666666667 -20 283 -20 c 0
 208.333333333 -20 149.166666667 2.83333333333 105.5 48.5 c 128
 61.8333333333 94.1666666667 40 151.666666667 40 221 c 0
 40 303 68 374 124 434 c 128
 180 494 251.666666667 524 339 524 c 0
284 60 m 0
 344 60 393.333333333 82.1666666667 432 126.5 c 128
 470.666666667 170.833333333 490 223.333333333 490 284 c 0
 490 330 475.833333333 368.166666667 447.5 398.5 c 128
 419.166666667 428.833333333 382 444 336 444 c 0
 276 444 226.666666667 421.833333333 188 377.5 c 128
 149.333333333 333.166666667 130 280.666666667 130 220 c 0
 130 174 144.166666667 135.833333333 172.5 105.5 c 128
 200.833333333 75.1666666667 238 60 284 60 c 0
EndSplineSet
Validated: 524289
EndChar

StartChar: oacute
Encoding: 243 243 176
Width: 619
Flags: HW
LayerCount: 2
Fore
SplineSet
410 584 m 1
 324 584 l 1
 455 750 l 1
 554 750 l 1
 410 584 l 1
339 524 m 0
 413 524 471.666666667 501.166666667 515 455.5 c 128
 558.333333333 409.833333333 580 352.333333333 580 283 c 0
 580 201 552.166666667 130 496.5 70 c 128
 440.833333333 10 369.666666667 -20 283 -20 c 0
 208.333333333 -20 149.166666667 2.83333333333 105.5 48.5 c 128
 61.8333333333 94.1666666667 40 151.666666667 40 221 c 0
 40 303 68 374 124 434 c 128
 180 494 251.666666667 524 339 524 c 0
284 60 m 0
 344 60 393.333333333 82.1666666667 432 126.5 c 128
 470.666666667 170.833333333 490 223.333333333 490 284 c 0
 490 330 475.833333333 368.166666667 447.5 398.5 c 128
 419.166666667 428.833333333 382 444 336 444 c 0
 276 444 226.666666667 421.833333333 188 377.5 c 128
 149.333333333 333.166666667 130 280.666666667 130 220 c 0
 130 174 144.166666667 135.833333333 172.5 105.5 c 128
 200.833333333 75.1666666667 238 60 284 60 c 0
EndSplineSet
Validated: 524289
EndChar

StartChar: ocircumflex
Encoding: 244 244 177
Width: 619
Flags: HW
LayerCount: 2
Fore
SplineSet
289 584 m 1
 208 584 l 1
 339 750 l 1
 453 750 l 1
 525 584 l 1
 452 584 l 1
 392 708 l 1
 289 584 l 1
339 524 m 0
 413 524 471.666666667 501.166666667 515 455.5 c 128
 558.333333333 409.833333333 580 352.333333333 580 283 c 0
 580 201 552.166666667 130 496.5 70 c 128
 440.833333333 10 369.666666667 -20 283 -20 c 0
 208.333333333 -20 149.166666667 2.83333333333 105.5 48.5 c 128
 61.8333333333 94.1666666667 40 151.666666667 40 221 c 0
 40 303 68 374 124 434 c 128
 180 494 251.666666667 524 339 524 c 0
284 60 m 0
 344 60 393.333333333 82.1666666667 432 126.5 c 128
 470.666666667 170.833333333 490 223.333333333 490 284 c 0
 490 330 475.833333333 368.166666667 447.5 398.5 c 128
 419.166666667 428.833333333 382 444 336 444 c 0
 276 444 226.666666667 421.833333333 188 377.5 c 128
 149.333333333 333.166666667 130 280.666666667 130 220 c 0
 130 174 144.166666667 135.833333333 172.5 105.5 c 128
 200.833333333 75.1666666667 238 60 284 60 c 0
EndSplineSet
Validated: 524289
EndChar

StartChar: otilde
Encoding: 245 245 178
Width: 619
Flags: HW
LayerCount: 2
Fore
SplineSet
260 596 m 1
 197 596 l 1
 203 637 l 2
 208.333333333 671 219.666666667 697.5 237 716.5 c 128
 254.333333333 735.5 276.666666667 745 304 745 c 0
 322.666666667 745 340.166666667 740.166666667 356.5 730.5 c 128
 372.833333333 720.833333333 385.833333333 710.333333333 395.5 699 c 128
 405.166666667 687.666666667 415.666666667 677.166666667 427 667.5 c 128
 438.333333333 657.833333333 448.666666667 653 458 653 c 0
 481.333333333 653 495.333333333 666.666666667 500 694 c 2
 506 738 l 1
 569 738 l 1
 563 696 l 2
 557.666666667 662.666666667 546.166666667 636.5 528.5 617.5 c 128
 510.833333333 598.5 488.666666667 589 462 589 c 0
 443.333333333 589 425.666666667 593.833333333 409 603.5 c 128
 392.333333333 613.166666667 379.166666667 623.666666667 369.5 635 c 128
 359.833333333 646.333333333 349.333333333 656.833333333 338 666.5 c 128
 326.666666667 676.166666667 316 681 306 681 c 0
 284.666666667 681 271.666666667 667.333333333 267 640 c 2
 260 596 l 1
339 524 m 0
 413 524 471.666666667 501.166666667 515 455.5 c 128
 558.333333333 409.833333333 580 352.333333333 580 283 c 0
 580 201 552.166666667 130 496.5 70 c 128
 440.833333333 10 369.666666667 -20 283 -20 c 0
 208.333333333 -20 149.166666667 2.83333333333 105.5 48.5 c 128
 61.8333333333 94.1666666667 40 151.666666667 40 221 c 0
 40 303 68 374 124 434 c 128
 180 494 251.666666667 524 339 524 c 0
284 60 m 0
 344 60 393.333333333 82.1666666667 432 126.5 c 128
 470.666666667 170.833333333 490 223.333333333 490 284 c 0
 490 330 475.833333333 368.166666667 447.5 398.5 c 128
 419.166666667 428.833333333 382 444 336 444 c 0
 276 444 226.666666667 421.833333333 188 377.5 c 128
 149.333333333 333.166666667 130 280.666666667 130 220 c 0
 130 174 144.166666667 135.833333333 172.5 105.5 c 128
 200.833333333 75.1666666667 238 60 284 60 c 0
EndSplineSet
Validated: 524289
EndChar

StartChar: odieresis
Encoding: 246 246 179
Width: 619
Flags: HW
LayerCount: 2
Fore
SplineSet
293 642 m 128
 277.666666667 642 264.333333333 647.5 253 658.5 c 128
 241.666666667 669.5 236 682.666666667 236 698 c 128
 236 713.333333333 241.666666667 726.5 253 737.5 c 128
 264.333333333 748.5 277.666666667 754 293 754 c 128
 308.333333333 754 321.666666667 748.5 333 737.5 c 128
 344.333333333 726.5 350 713.333333333 350 698 c 128
 350 682.666666667 344.333333333 669.5 333 658.5 c 128
 321.666666667 647.5 308.333333333 642 293 642 c 128
485 642 m 128
 469.666666667 642 456.333333333 647.5 445 658.5 c 128
 433.666666667 669.5 428 682.666666667 428 698 c 128
 428 713.333333333 433.666666667 726.5 445 737.5 c 128
 456.333333333 748.5 469.666666667 754 485 754 c 128
 500.333333333 754 513.666666667 748.5 525 737.5 c 128
 536.333333333 726.5 542 713.333333333 542 698 c 128
 542 682.666666667 536.333333333 669.5 525 658.5 c 128
 513.666666667 647.5 500.333333333 642 485 642 c 128
339 524 m 0
 413 524 471.666666667 501.166666667 515 455.5 c 128
 558.333333333 409.833333333 580 352.333333333 580 283 c 0
 580 201 552.166666667 130 496.5 70 c 128
 440.833333333 10 369.666666667 -20 283 -20 c 0
 208.333333333 -20 149.166666667 2.83333333333 105.5 48.5 c 128
 61.8333333333 94.1666666667 40 151.666666667 40 221 c 0
 40 303 68 374 124 434 c 128
 180 494 251.666666667 524 339 524 c 0
284 60 m 0
 344 60 393.333333333 82.1666666667 432 126.5 c 128
 470.666666667 170.833333333 490 223.333333333 490 284 c 0
 490 330 475.833333333 368.166666667 447.5 398.5 c 128
 419.166666667 428.833333333 382 444 336 444 c 0
 276 444 226.666666667 421.833333333 188 377.5 c 128
 149.333333333 333.166666667 130 280.666666667 130 220 c 0
 130 174 144.166666667 135.833333333 172.5 105.5 c 128
 200.833333333 75.1666666667 238 60 284 60 c 0
EndSplineSet
Validated: 524289
EndChar

StartChar: divide
Encoding: 247 247 180
Width: 600
Flags: HW
LayerCount: 2
Fore
SplineSet
337 412 m 128
 322.333333333 412 309.833333333 417.166666667 299.5 427.5 c 128
 289.166666667 437.833333333 284 450.333333333 284 465 c 128
 284 479.666666667 289.166666667 492.166666667 299.5 502.5 c 128
 309.833333333 512.833333333 322.333333333 518 337 518 c 128
 351.666666667 518 364.333333333 512.833333333 375 502.5 c 128
 385.666666667 492.166666667 391 479.666666667 391 465 c 128
 391 450.333333333 385.666666667 437.833333333 375 427.5 c 128
 364.333333333 417.166666667 351.666666667 412 337 412 c 128
538 215 m 1
 49 215 l 1
 63 289 l 1
 551 289 l 1
 538 215 l 1
263 -15 m 128
 248.333333333 -15 235.666666667 -9.83333333333 225 0.5 c 128
 214.333333333 10.8333333333 209 23.3333333333 209 38 c 128
 209 52.6666666667 214.333333333 65.1666666667 225 75.5 c 128
 235.666666667 85.8333333333 248.333333333 91 263 91 c 128
 277.666666667 91 290.166666667 85.8333333333 300.5 75.5 c 128
 310.833333333 65.1666666667 316 52.6666666667 316 38 c 128
 316 23.3333333333 310.833333333 10.8333333333 300.5 0.5 c 128
 290.166666667 -9.83333333333 277.666666667 -15 263 -15 c 128
EndSplineSet
Validated: 524289
EndChar

StartChar: oslash
Encoding: 248 248 181
Width: 620
Flags: HW
LayerCount: 2
Fore
SplineSet
86 -20 m 1
 -2 -20 l 1
 86 71 l 1
 55.3333333333 113 40 163 40 221 c 0
 40 303 68 374 124 434 c 128
 180 494 251.666666667 524 339 524 c 0
 398.333333333 524 448.666666667 508.666666667 490 478 c 1
 535 524 l 1
 623 524 l 1
 534 433 l 1
 564.666666667 391 580 341 580 283 c 0
 580 201 552.166666667 130 496.5 70 c 128
 440.833333333 10 369.666666667 -20 283 -20 c 0
 223 -20 172.333333333 -4.66666666667 131 26 c 1
 86 -20 l 1
130 220 m 0
 130 188.666666667 137.333333333 160 152 134 c 1
 427 416 l 1
 401 434.666666667 370.666666667 444 336 444 c 0
 276 444 226.666666667 421.833333333 188 377.5 c 128
 149.333333333 333.166666667 130 280.666666667 130 220 c 0
284 60 m 0
 344 60 393.333333333 82.1666666667 432 126.5 c 128
 470.666666667 170.833333333 490 223.333333333 490 284 c 0
 490 316.666666667 483 345 469 369 c 1
 194 87 l 1
 220.666666667 69 250.666666667 60 284 60 c 0
EndSplineSet
Validated: 524289
EndChar

StartChar: ugrave
Encoding: 249 249 182
Width: 586
Flags: HW
LayerCount: 2
Fore
SplineSet
312 584 m 1
 227 750 l 1
 319 750 l 1
 391 584 l 1
 312 584 l 1
419 216 m 2
 470 504 l 1
 556 504 l 1
 504 215 l 2
 476.666666667 58.3333333333 397 -20 265 -20 c 0
 193.666666667 -20 140.166666667 1.5 104.5 44.5 c 128
 68.8333333333 87.5 57.6666666667 147.333333333 71 224 c 2
 121 504 l 1
 206 504 l 1
 155 216 l 2
 146.333333333 166.666666667 152.333333333 128.333333333 173 101 c 128
 193.666666667 73.6666666667 226.333333333 60 271 60 c 0
 351 60 400.333333333 112 419 216 c 2
EndSplineSet
Validated: 524321
EndChar

StartChar: uacute
Encoding: 250 250 183
Width: 586
Flags: HW
LayerCount: 2
Fore
SplineSet
393 584 m 1
 307 584 l 1
 438 750 l 1
 537 750 l 1
 393 584 l 1
419 216 m 2
 470 504 l 1
 556 504 l 1
 504 215 l 2
 476.666666667 58.3333333333 397 -20 265 -20 c 0
 193.666666667 -20 140.166666667 1.5 104.5 44.5 c 128
 68.8333333333 87.5 57.6666666667 147.333333333 71 224 c 2
 121 504 l 1
 206 504 l 1
 155 216 l 2
 146.333333333 166.666666667 152.333333333 128.333333333 173 101 c 128
 193.666666667 73.6666666667 226.333333333 60 271 60 c 0
 351 60 400.333333333 112 419 216 c 2
EndSplineSet
Validated: 524321
EndChar

StartChar: ucircumflex
Encoding: 251 251 184
Width: 586
Flags: HW
LayerCount: 2
Fore
SplineSet
272 584 m 1
 191 584 l 1
 322 750 l 1
 436 750 l 1
 508 584 l 1
 435 584 l 1
 375 708 l 1
 272 584 l 1
419 216 m 2
 470 504 l 1
 556 504 l 1
 504 215 l 2
 476.666666667 58.3333333333 397 -20 265 -20 c 0
 193.666666667 -20 140.166666667 1.5 104.5 44.5 c 128
 68.8333333333 87.5 57.6666666667 147.333333333 71 224 c 2
 121 504 l 1
 206 504 l 1
 155 216 l 2
 146.333333333 166.666666667 152.333333333 128.333333333 173 101 c 128
 193.666666667 73.6666666667 226.333333333 60 271 60 c 0
 351 60 400.333333333 112 419 216 c 2
EndSplineSet
Validated: 524321
EndChar

StartChar: udieresis
Encoding: 252 252 185
Width: 586
Flags: HW
LayerCount: 2
Fore
SplineSet
276 642 m 128
 260.666666667 642 247.333333333 647.5 236 658.5 c 128
 224.666666667 669.5 219 682.666666667 219 698 c 128
 219 713.333333333 224.666666667 726.5 236 737.5 c 128
 247.333333333 748.5 260.666666667 754 276 754 c 128
 291.333333333 754 304.666666667 748.5 316 737.5 c 128
 327.333333333 726.5 333 713.333333333 333 698 c 128
 333 682.666666667 327.333333333 669.5 316 658.5 c 128
 304.666666667 647.5 291.333333333 642 276 642 c 128
468 642 m 128
 452.666666667 642 439.333333333 647.5 428 658.5 c 128
 416.666666667 669.5 411 682.666666667 411 698 c 128
 411 713.333333333 416.666666667 726.5 428 737.5 c 128
 439.333333333 748.5 452.666666667 754 468 754 c 128
 483.333333333 754 496.666666667 748.5 508 737.5 c 128
 519.333333333 726.5 525 713.333333333 525 698 c 128
 525 682.666666667 519.333333333 669.5 508 658.5 c 128
 496.666666667 647.5 483.333333333 642 468 642 c 128
419 216 m 2
 470 504 l 1
 556 504 l 1
 504 215 l 2
 476.666666667 58.3333333333 397 -20 265 -20 c 0
 193.666666667 -20 140.166666667 1.5 104.5 44.5 c 128
 68.8333333333 87.5 57.6666666667 147.333333333 71 224 c 2
 121 504 l 1
 206 504 l 1
 155 216 l 2
 146.333333333 166.666666667 152.333333333 128.333333333 173 101 c 128
 193.666666667 73.6666666667 226.333333333 60 271 60 c 0
 351 60 400.333333333 112 419 216 c 2
EndSplineSet
Validated: 524321
EndChar

StartChar: yacute
Encoding: 253 253 186
Width: 533
Flags: HW
LayerCount: 2
Fore
SplineSet
366 584 m 1
 280 584 l 1
 411 750 l 1
 510 750 l 1
 366 584 l 1
198 -122 m 2
 172 -167.333333333 144.833333333 -200 116.5 -220 c 128
 88.1666666667 -240 55 -250 17 -250 c 0
 -22.3333333333 -250 -52.6666666667 -243.333333333 -74 -230 c 1
 -61 -155 l 1
 -40.3333333333 -166.333333333 -17.3333333333 -172 8 -172 c 0
 53.3333333333 -172 92 -145 124 -91 c 2
 178 1 l 1
 58 504 l 1
 148 504 l 1
 239 107 l 1
 470 504 l 1
 564 504 l 1
 198 -122 l 2
EndSplineSet
Validated: 524289
EndChar

StartChar: thorn
Encoding: 254 254 187
Width: 640
Flags: HW
LayerCount: 2
Fore
SplineSet
-1 -246 m 1
 174 750 l 1
 259 750 l 1
 208 459 l 1
 256.666666667 502.333333333 311.333333333 524 372 524 c 0
 442 524 497.5 501.666666667 538.5 457 c 128
 579.5 412.333333333 600 354.333333333 600 283 c 0
 600 199.666666667 573.333333333 128.333333333 520 69 c 128
 466.666666667 9.66666666667 399.333333333 -20 318 -20 c 0
 240 -20 180 7.66666666667 138 63 c 1
 84 -246 l 1
 -1 -246 l 1
352 444 m 0
 286 444 232 415.666666667 190 359 c 1
 156 163 l 1
 170 130.333333333 190.5 105 217.5 87 c 128
 244.5 69 276 60 312 60 c 0
 369.333333333 60 416.666666667 81.3333333333 454 124 c 128
 491.333333333 166.666666667 510 219.666666667 510 283 c 0
 510 330.333333333 495.833333333 369 467.5 399 c 128
 439.166666667 429 400.666666667 444 352 444 c 0
EndSplineSet
Validated: 524289
EndChar

StartChar: ydieresis
Encoding: 255 255 188
Width: 533
Flags: HW
LayerCount: 2
Fore
SplineSet
249 642 m 128
 233.666666667 642 220.333333333 647.5 209 658.5 c 128
 197.666666667 669.5 192 682.666666667 192 698 c 128
 192 713.333333333 197.666666667 726.5 209 737.5 c 128
 220.333333333 748.5 233.666666667 754 249 754 c 128
 264.333333333 754 277.666666667 748.5 289 737.5 c 128
 300.333333333 726.5 306 713.333333333 306 698 c 128
 306 682.666666667 300.333333333 669.5 289 658.5 c 128
 277.666666667 647.5 264.333333333 642 249 642 c 128
441 642 m 128
 425.666666667 642 412.333333333 647.5 401 658.5 c 128
 389.666666667 669.5 384 682.666666667 384 698 c 128
 384 713.333333333 389.666666667 726.5 401 737.5 c 128
 412.333333333 748.5 425.666666667 754 441 754 c 128
 456.333333333 754 469.666666667 748.5 481 737.5 c 128
 492.333333333 726.5 498 713.333333333 498 698 c 128
 498 682.666666667 492.333333333 669.5 481 658.5 c 128
 469.666666667 647.5 456.333333333 642 441 642 c 128
198 -122 m 2
 172 -167.333333333 144.833333333 -200 116.5 -220 c 128
 88.1666666667 -240 55 -250 17 -250 c 0
 -22.3333333333 -250 -52.6666666667 -243.333333333 -74 -230 c 1
 -61 -155 l 1
 -40.3333333333 -166.333333333 -17.3333333333 -172 8 -172 c 0
 53.3333333333 -172 92 -145 124 -91 c 2
 178 1 l 1
 58 504 l 1
 148 504 l 1
 239 107 l 1
 470 504 l 1
 564 504 l 1
 198 -122 l 2
EndSplineSet
Validated: 524289
EndChar
